<svg width="1376" height="120" viewBox="0 0 1376 120" fill="none" xmlns="http://www.w3.org/2000/svg">
<g clip-path="url(#clip0_1543_1306)">
<path fill-rule="evenodd" clip-rule="evenodd" d="M687.77 148.433C699.465 155.18 713.033 158.553 728.477 158.553C738.822 158.553 748.418 156.829 757.264 153.381C766.26 149.932 774.131 145.059 780.878 138.762C787.775 132.465 793.172 125.043 797.071 116.497C800.969 107.951 802.918 98.5803 802.918 88.3849C802.918 85.986 802.768 83.587 802.468 81.1881C802.168 78.6393 801.719 76.3153 801.119 74.2163H726.452V100.979H772.64C771.558 104.509 770.031 107.807 768.059 110.875C764.011 117.022 758.538 121.895 751.641 125.493C744.894 128.942 737.173 130.666 728.477 130.666C719.331 130.666 711.159 128.567 703.963 124.369C696.916 120.021 691.293 114.023 687.095 106.377C683.047 98.7302 681.023 89.9592 681.023 80.0636C681.023 69.7183 683.047 60.7223 687.095 53.0758C691.293 45.4292 696.916 39.5069 703.963 35.3088C711.159 30.9608 719.331 28.7868 728.477 28.7868C737.472 28.7868 745.419 30.5859 752.316 34.1843C759.363 37.6328 765.66 43.705 771.207 52.4011L798.645 42.0558C792.198 29.0116 783.277 18.8162 771.882 11.4695C760.487 3.97292 746.019 0.224609 728.477 0.224609C717.232 0.224609 706.886 2.17373 697.441 6.07198C687.995 9.97022 679.748 15.5177 672.702 22.7145C665.805 29.7613 660.407 38.1575 656.509 47.9031C652.761 57.6487 650.886 68.3689 650.886 80.0636C650.886 95.0569 654.11 108.476 660.557 120.321C667.004 132.165 676.075 141.536 687.77 148.433ZM1173.22 158.553C1157.48 158.553 1143.76 155.18 1132.07 148.433C1120.52 141.536 1111.52 132.165 1105.08 120.321C1098.78 108.326 1095.63 94.6821 1095.63 79.3889C1095.63 67.8441 1097.51 57.2739 1101.25 47.6782C1105.15 37.9326 1110.55 29.5364 1117.45 22.4896C1124.49 15.4427 1132.74 9.97022 1142.19 6.07198C1151.63 2.17373 1161.98 0.224609 1173.22 0.224609C1191.06 0.224609 1205.68 4.04789 1217.08 11.6944C1228.47 19.341 1237.39 29.9862 1243.84 43.6301L1216.4 53.5256C1210.85 44.5297 1204.56 38.1575 1197.51 34.4092C1190.46 30.6609 1182.37 28.7868 1173.22 28.7868C1164.08 28.7868 1155.9 30.9608 1148.71 35.3088C1141.66 39.5069 1136.04 45.4292 1131.84 53.0758C1127.79 60.5724 1125.77 69.3435 1125.77 79.3889C1125.77 89.2845 1127.79 98.0555 1131.84 105.702C1136.04 113.349 1141.66 119.346 1148.71 123.694C1155.9 127.892 1164.08 129.991 1173.22 129.991C1182.37 129.991 1190.46 128.117 1197.51 124.369C1204.56 120.62 1210.85 114.248 1216.4 105.252L1243.84 115.148C1237.39 128.792 1228.47 139.437 1217.08 147.083C1205.68 154.73 1191.06 158.553 1173.22 158.553ZM1275.69 2.69542L1309.67 70.4723L1343.84 2.69542H1376L1324.27 101.66V155.851H1294.81V102.485L1243.08 2.69542H1275.69ZM973.564 55.5694L1048.68 155.851H1074.99V2.69542H1045.53V102.98L970.416 2.69542H944.103V155.851H973.564V55.5694ZM851.891 127.739V93.1047H905.641V64.9924H851.891V30.5829H918.461V2.69542H822.429V155.851H918.461V127.739H851.891Z" fill="white"/>
<path fill-rule="evenodd" clip-rule="evenodd" d="M147.887 79.3859C147.887 67.6912 149.761 56.971 153.509 47.2254C157.258 37.4798 162.58 29.0836 169.477 22.0367C176.374 14.84 184.62 9.29249 194.216 5.39424C203.812 1.496 214.457 -0.453125 226.152 -0.453125C237.846 -0.453125 248.491 1.496 258.087 5.39424C267.833 9.29249 276.154 14.84 283.051 22.0367C290.098 29.0836 295.495 37.4798 299.244 47.2254C302.992 56.971 304.866 67.6912 304.866 79.3859C304.866 91.0806 302.992 101.801 299.244 111.546C295.495 121.292 290.098 129.763 283.051 136.96C276.154 144.007 267.833 149.479 258.087 153.378C248.491 157.126 237.846 159 226.152 159C214.457 159 203.812 157.126 194.216 153.378C184.62 149.479 176.374 144.007 169.477 136.96C162.58 129.763 157.258 121.292 153.509 111.546C149.761 101.801 147.887 91.0806 147.887 79.3859ZM189.493 79.3859C189.493 87.7821 190.992 94.9039 193.991 100.751C197.14 106.599 201.488 111.022 207.035 114.02C212.583 117.019 218.955 118.518 226.152 118.518C233.498 118.518 239.945 117.019 245.493 114.02C251.04 111.022 255.388 106.599 258.537 100.751C261.686 94.754 263.26 87.5572 263.26 79.161C263.26 70.7648 261.686 63.643 258.537 57.7956C255.388 51.9483 251.04 47.5252 245.493 44.5266C239.945 41.528 233.498 40.0286 226.152 40.0286C218.955 40.0286 212.583 41.6029 207.035 44.7515C201.488 47.7501 197.14 52.1732 193.991 58.0205C190.992 63.8679 189.493 70.9897 189.493 79.3859ZM582.475 105.023H370.846V78.2598H582.475V105.023ZM40.7067 75.3738L97.606 155.848H135.614V2.69226H94.6823V83.0991L38.0079 2.69226H0V155.848H40.7067V75.3738Z" fill="#FF461E"/>
</g>
<defs>
<clipPath id="clip0_1543_1306">
<rect width="1376" height="120" fill="white"/>
</clipPath>
</defs>
</svg>
