<svg xmlns="http://www.w3.org/2000/svg" xmlns:xlink="http://www.w3.org/1999/xlink" width="1000" zoomAndPan="magnify" viewBox="0 0 750 149.999998" height="200" preserveAspectRatio="xMidYMid meet" version="1.2"><defs/><g id="d977d06d76"><g style="fill:#ffffff;fill-opacity:1;"><g transform="translate(-7.511889, 144.921897)"><path style="stroke:none" d="M 9.0625 0 L 9.0625 -6.9375 C 16.78125 -7.519531 21.84375 -8.613281 24.25 -10.21875 C 26.664062 -11.832031 27.875 -14.628906 27.875 -18.609375 L 27.875 -116.875 C 27.875 -124.65625 21.863281 -129.03125 9.84375 -130 L 9.84375 -136.84375 L 73.09375 -136.84375 C 84.539062 -136.84375 94.007812 -134.253906 101.5 -129.078125 C 108.988281 -123.898438 112.734375 -116.554688 112.734375 -107.046875 C 112.734375 -90.003906 101.960938 -78.945312 80.421875 -73.875 L 80.421875 -73.09375 C 106.972656 -69.113281 120.25 -57.125 120.25 -37.125 C 120.25 -25.9375 115.765625 -16.953125 106.796875 -10.171875 C 97.828125 -3.390625 86.914062 0 74.0625 0 Z M 48.40625 -128.734375 L 48.40625 -76.28125 L 60.65625 -76.28125 C 80.007812 -76.28125 89.6875 -85.890625 89.6875 -105.109375 C 89.6875 -121.117188 81.132812 -129.125 64.03125 -129.125 C 58.25 -129.125 53.039062 -128.992188 48.40625 -128.734375 Z M 48.40625 -68.1875 L 48.40625 -19.96875 C 48.40625 -11.800781 54.578125 -7.71875 66.921875 -7.71875 C 86.660156 -7.71875 96.53125 -18.710938 96.53125 -40.703125 C 96.53125 -49.179688 93.734375 -55.941406 88.140625 -60.984375 C 82.546875 -66.035156 74.894531 -68.5625 65.1875 -68.5625 C 57.664062 -68.5625 52.070312 -68.4375 48.40625 -68.1875 Z M 48.40625 -68.1875 "/></g></g><g style="fill:#ffffff;fill-opacity:1;"><g transform="translate(136.039626, 144.921897)"><path style="stroke:none" d="M 147.9375 -130 C 138.226562 -129.226562 132.085938 -127.054688 129.515625 -123.484375 C 126.941406 -119.921875 125.65625 -111.929688 125.65625 -99.515625 L 125.65625 -40.125 C 125.65625 -26.613281 120.71875 -15.984375 110.84375 -8.234375 C 100.976562 -0.492188 89.457031 3.375 76.28125 3.375 C 60.71875 3.375 48.289062 -0.414062 39 -8 C 29.71875 -15.59375 25.078125 -24.976562 25.078125 -36.15625 L 25.078125 -116.875 C 25.078125 -124.394531 19.097656 -128.769531 7.140625 -130 L 7.140625 -136.84375 L 64.21875 -136.84375 L 64.21875 -130 C 56.507812 -129.351562 51.515625 -128.222656 49.234375 -126.609375 C 46.953125 -125.003906 45.8125 -122.113281 45.8125 -117.9375 L 45.8125 -42.234375 C 45.8125 -19.085938 57.125 -7.515625 79.75 -7.515625 C 91.582031 -7.515625 100.597656 -10.828125 106.796875 -17.453125 C 113.003906 -24.078125 116.109375 -32.273438 116.109375 -42.046875 L 116.109375 -98.359375 C 116.109375 -111.992188 114.421875 -120.414062 111.046875 -123.625 C 107.671875 -126.84375 101.257812 -128.96875 91.8125 -130 L 91.8125 -136.84375 L 147.9375 -136.84375 Z M 147.9375 -130 "/></g></g><g style="fill:#ffffff;fill-opacity:1;"><g transform="translate(299.746878, 144.921897)"><path style="stroke:none" d="M 121.890625 0 L 8.296875 0 L 8.296875 -6.9375 C 16.910156 -7.644531 22.328125 -8.753906 24.546875 -10.265625 C 26.765625 -11.773438 27.875 -14.554688 27.875 -18.609375 L 27.875 -116.875 C 27.875 -121.375 26.148438 -124.554688 22.703125 -126.421875 C 19.265625 -128.285156 14.460938 -129.476562 8.296875 -130 L 8.296875 -136.84375 L 114.1875 -136.84375 L 114.1875 -103.859375 L 107.046875 -103.859375 C 105.691406 -108.878906 103.132812 -113.765625 99.375 -118.515625 C 95.613281 -123.273438 92.382812 -126.234375 89.6875 -127.390625 C 86.988281 -128.546875 80.398438 -129.125 69.921875 -129.125 L 48.40625 -129.125 L 48.40625 -74.828125 L 63.84375 -74.828125 C 71.101562 -74.828125 76.335938 -76.453125 79.546875 -79.703125 C 82.765625 -82.953125 85.019531 -88.785156 86.3125 -97.203125 L 93.453125 -97.203125 L 93.453125 -43.6875 L 86.3125 -43.6875 C 85.988281 -46.894531 85.085938 -50.671875 83.609375 -55.015625 C 82.128906 -59.359375 80.019531 -62.425781 77.28125 -64.21875 C 74.550781 -66.019531 70.070312 -66.921875 63.84375 -66.921875 L 48.40625 -66.921875 L 48.40625 -25.84375 C 48.40625 -18 49.644531 -13.046875 52.125 -10.984375 C 54.601562 -8.929688 61.113281 -7.90625 71.65625 -7.90625 L 80.046875 -7.90625 C 89.046875 -7.90625 95.117188 -8.613281 98.265625 -10.03125 C 101.421875 -11.445312 104.894531 -15.335938 108.6875 -21.703125 C 112.476562 -28.066406 115.4375 -34.269531 117.5625 -40.3125 L 124.40625 -40.3125 Z M 121.890625 0 "/></g></g><g style="fill:#ffffff;fill-opacity:1;"><g transform="translate(443.105514, 144.921897)"><path style="stroke:none" d="M 149.859375 -130 C 140.472656 -128.769531 134.410156 -126.707031 131.671875 -123.8125 C 128.941406 -120.925781 127.578125 -112.570312 127.578125 -98.75 L 127.578125 1.34375 L 119.296875 1.34375 L 36.359375 -110.609375 L 36.359375 -40.125 C 36.359375 -31.632812 36.867188 -25.425781 37.890625 -21.5 C 38.921875 -17.582031 40.160156 -14.898438 41.609375 -13.453125 C 43.054688 -12.003906 45.851562 -10.617188 50 -9.296875 C 54.144531 -7.984375 57.757812 -7.195312 60.84375 -6.9375 L 60.84375 0 L 4.53125 0 L 4.53125 -6.9375 C 12.1875 -8.03125 17.859375 -9.765625 21.546875 -12.140625 C 25.242188 -14.523438 27.09375 -23.429688 27.09375 -38.859375 L 27.09375 -106.46875 C 27.09375 -119.769531 18.863281 -127.613281 2.40625 -130 L 2.40625 -136.84375 L 41.28125 -136.84375 L 118.328125 -32.59375 L 118.328125 -97.59375 C 118.328125 -112.25 116.507812 -121.003906 112.875 -123.859375 C 109.238281 -126.722656 103.019531 -128.769531 94.21875 -130 L 94.21875 -136.84375 L 149.859375 -136.84375 Z M 149.859375 -130 "/></g></g><g style="fill:#ffffff;fill-opacity:1;"><g transform="translate(609.030862, 144.921897)"><path style="stroke:none" d="M 73.484375 3.375 C 54.648438 3.375 38.976562 -3.390625 26.46875 -16.921875 C 13.96875 -30.453125 7.71875 -47.601562 7.71875 -68.375 C 7.71875 -89.332031 14.066406 -106.515625 26.765625 -119.921875 C 39.460938 -133.328125 55.035156 -140.03125 73.484375 -140.03125 C 92.253906 -140.03125 107.90625 -133.34375 120.4375 -119.96875 C 132.976562 -106.59375 139.25 -89.394531 139.25 -68.375 C 139.25 -47.28125 132.898438 -30.046875 120.203125 -16.671875 C 107.503906 -3.304688 91.929688 3.375 73.484375 3.375 Z M 73.484375 -131.53125 C 60.046875 -131.53125 49.613281 -125.859375 42.1875 -114.515625 C 34.757812 -103.171875 31.046875 -87.789062 31.046875 -68.375 C 31.046875 -48.832031 34.773438 -33.429688 42.234375 -22.171875 C 49.691406 -10.921875 60.109375 -5.296875 73.484375 -5.296875 C 86.984375 -5.296875 97.429688 -10.9375 104.828125 -22.21875 C 112.222656 -33.507812 115.921875 -48.894531 115.921875 -68.375 C 115.921875 -87.914062 112.191406 -103.328125 104.734375 -114.609375 C 97.273438 -125.890625 86.859375 -131.53125 73.484375 -131.53125 Z M 73.484375 -131.53125 "/></g></g></g></svg>