<svg width="172" height="21" viewBox="0 0 172 21" fill="none" xmlns="http://www.w3.org/2000/svg">
<path d="M164.153 11.264H162.249L167.457 0.932007H171.461L164.685 13.896L165.021 11.544V20H161.353V11.544L161.633 13.896L154.913 0.932007H158.973L164.153 11.264Z" fill="#1C1C1C"/>
<path d="M146.215 20.336C144.255 20.336 142.547 19.916 141.091 19.076C139.653 18.2174 138.533 17.0507 137.731 15.576C136.947 14.0827 136.555 12.384 136.555 10.48C136.555 9.04269 136.788 7.72669 137.255 6.53202C137.74 5.31869 138.412 4.27336 139.271 3.39602C140.148 2.51869 141.175 1.83736 142.351 1.35202C143.527 0.86669 144.815 0.624023 146.215 0.624023C148.436 0.624023 150.256 1.10002 151.675 2.05202C153.093 3.00402 154.204 4.32936 155.007 6.02802L151.591 7.26003C150.9 6.14002 150.116 5.34669 149.239 4.88002C148.361 4.41336 147.353 4.18003 146.215 4.18003C145.076 4.18003 144.059 4.45069 143.163 4.99202C142.285 5.51469 141.585 6.25202 141.063 7.20402C140.559 8.13736 140.307 9.22936 140.307 10.48C140.307 11.712 140.559 12.804 141.063 13.756C141.585 14.708 142.285 15.4547 143.163 15.996C144.059 16.5187 145.076 16.78 146.215 16.78C147.353 16.78 148.361 16.5467 149.239 16.08C150.116 15.6134 150.9 14.82 151.591 13.7L155.007 14.932C154.204 16.6307 153.093 17.956 151.675 18.908C150.256 19.86 148.436 20.336 146.215 20.336Z" fill="#1C1C1C"/>
<path d="M130.709 20L119.677 5.27201L121.357 4.79601V20H117.689V0.932007H120.965L131.745 15.324L130.317 15.52V0.932007H133.985V20H130.709Z" fill="#1C1C1C"/>
<path d="M105.117 12.188V8.68801H112.901V12.188H105.117ZM105.033 4.40401L106.209 3.00401V17.788L104.893 16.5H114.497V20H102.541V0.932007H114.497V4.40401H105.033Z" fill="#1C1C1C"/>
<path d="M90.8437 20.336C88.9211 20.336 87.2317 19.916 85.7757 19.076C84.3197 18.2174 83.1904 17.0507 82.3877 15.576C81.5851 14.1014 81.1837 12.4307 81.1837 10.564C81.1837 9.10802 81.4171 7.77336 81.8837 6.56002C82.3691 5.34669 83.0411 4.30136 83.8997 3.42402C84.7771 2.52802 85.8037 1.83736 86.9797 1.35202C88.1557 0.86669 89.4437 0.624023 90.8437 0.624023C93.0277 0.624023 94.8291 1.09069 96.2477 2.02402C97.6664 2.93869 98.7771 4.20802 99.5797 5.83202L96.1637 7.12002C95.4731 6.03736 94.6891 5.28136 93.8117 4.85202C92.9531 4.40402 91.9637 4.18003 90.8437 4.18003C89.7051 4.18003 88.6877 4.45069 87.7917 4.99202C86.9144 5.51469 86.2144 6.25202 85.6917 7.20402C85.1877 8.15602 84.9357 9.27602 84.9357 10.564C84.9357 11.796 85.1877 12.888 85.6917 13.84C86.2144 14.792 86.9144 15.5387 87.7917 16.08C88.6877 16.6027 89.7051 16.864 90.8437 16.864C91.9264 16.864 92.8877 16.6494 93.7277 16.22C94.5864 15.772 95.2677 15.1654 95.7717 14.4C96.2757 13.616 96.5464 12.7107 96.5837 11.684L97.5077 13.168H90.5917V9.83603H99.8877C99.9624 10.0974 100.018 10.3867 100.056 10.704C100.093 11.0027 100.112 11.3014 100.112 11.6C100.112 12.8694 99.8691 14.036 99.3837 15.1C98.8984 16.164 98.2264 17.088 97.3677 17.872C96.5277 18.656 95.5477 19.2627 94.4277 19.692C93.3264 20.1214 92.1317 20.336 90.8437 20.336Z" fill="#1C1C1C"/>
<path d="M72.6665 13.6721H46.3185V10.3401H72.6665V13.6721Z" fill="#FF461E"/>
<path d="M18.5599 10.48C18.5599 9.02404 18.7933 7.68937 19.2599 6.47604C19.7266 5.26271 20.3893 4.21737 21.2479 3.34004C22.1066 2.44404 23.1333 1.75337 24.3279 1.26804C25.5226 0.782706 26.8479 0.540039 28.3039 0.540039C29.7599 0.540039 31.0853 0.782706 32.2799 1.26804C33.4933 1.75337 34.5293 2.44404 35.3879 3.34004C36.2653 4.21737 36.9373 5.26271 37.4039 6.47604C37.8706 7.68937 38.1039 9.02404 38.1039 10.48C38.1039 11.936 37.8706 13.2707 37.4039 14.484C36.9373 15.6974 36.2653 16.752 35.3879 17.648C34.5293 18.5254 33.4933 19.2067 32.2799 19.692C31.0853 20.1587 29.7599 20.392 28.3039 20.392C26.8479 20.392 25.5226 20.1587 24.3279 19.692C23.1333 19.2067 22.1066 18.5254 21.2479 17.648C20.3893 16.752 19.7266 15.6974 19.2599 14.484C18.7933 13.2707 18.5599 11.936 18.5599 10.48ZM23.7399 10.48C23.7399 11.5254 23.9266 12.412 24.2999 13.14C24.6919 13.868 25.2333 14.4187 25.9239 14.792C26.6146 15.1654 27.4079 15.352 28.3039 15.352C29.2186 15.352 30.0213 15.1654 30.7119 14.792C31.4026 14.4187 31.9439 13.868 32.3359 13.14C32.7279 12.3934 32.9239 11.4974 32.9239 10.452C32.9239 9.40671 32.7279 8.52004 32.3359 7.79204C31.9439 7.06404 31.4026 6.51337 30.7119 6.14004C30.0213 5.76671 29.2186 5.58004 28.3039 5.58004C27.4079 5.58004 26.6146 5.77604 25.9239 6.16804C25.2333 6.54137 24.6919 7.09204 24.2999 7.82004C23.9266 8.54804 23.7399 9.43471 23.7399 10.48Z" fill="#FF461E"/>
<path d="M12.3 20L3.31195 7.28801L5.21595 6.78401V20H0.147949V0.932007H4.87995L13.84 13.644L11.936 14.148V0.932007H17.0319V20H12.3Z" fill="#FF461E"/>
</svg>
