<svg width="76" height="50" viewBox="0 0 76 50" fill="none" xmlns="http://www.w3.org/2000/svg">
<g clip-path="url(#clip0_1453_582)">
<path d="M25.5 50H33.0904L30.8806 47.7903C30.2946 47.2043 29.4998 46.875 28.671 46.875H25.5C13.4187 46.875 3.625 37.0812 3.625 25C3.625 12.9187 13.4187 3.12501 25.5 3.125H50.5C62.5812 3.125 72.375 12.9187 72.375 25C72.375 37.0812 62.5812 46.875 50.5 46.875H41.148C39.9047 46.875 38.7125 46.3811 37.8334 45.5021L35.2446 42.9132C33.7795 41.4481 31.7922 40.625 29.7202 40.625H25.5C16.8705 40.625 9.875 33.6295 9.875 25C9.875 16.3705 16.8705 9.375 25.5 9.375H50.5C59.1295 9.375 66.125 16.3705 66.125 25C66.125 33.6295 59.1295 40.625 50.5 40.625H44.4951C43.2519 40.625 42.0596 40.1311 41.1805 39.2521L38.5916 36.6632C37.1265 35.1981 35.1394 34.375 33.0674 34.375H25.5C20.3224 34.375 16.125 30.1776 16.125 25C16.125 19.8224 20.3224 15.625 25.5 15.625H50.5C55.6776 15.625 59.875 19.8224 59.875 25C59.875 30.1145 55.7794 34.2725 50.689 34.3731L50.688 34.375H48.4014C47.1581 34.375 45.9659 33.8811 45.0868 33.0021L42.4979 30.4132C41.2957 29.211 39.7421 28.4411 38.0785 28.2035L38 28.125H25.5C23.7741 28.125 22.375 26.7259 22.375 25C22.375 23.2741 23.7741 21.875 25.5 21.875H50.5C52.2259 21.875 53.625 23.2741 53.625 25C53.625 26.7259 52.2259 28.125 50.5 28.125H44.25L46.4597 30.3347C47.0457 30.9207 47.8406 31.25 48.6694 31.25H50.5C53.9518 31.25 56.75 28.4517 56.75 25C56.75 21.5483 53.9518 18.75 50.5 18.75H25.5C22.0483 18.75 19.25 21.5483 19.25 25C19.25 28.4517 22.0483 31.25 25.5 31.25H36.9736C38.2169 31.25 39.4091 31.7439 40.2882 32.6229L42.8771 35.2118C44.3422 36.6769 46.3294 37.5 48.4014 37.5H51.2812V37.476C57.8209 37.0728 63 31.6411 63 25C63 18.0965 57.4035 12.5 50.5 12.5H25.5C18.5965 12.5 13 18.0965 13 25C13 31.9036 18.5965 37.5 25.5 37.5H33.0674C34.3106 37.5 35.5029 37.9939 36.382 38.8729L38.9709 41.4618C40.436 42.9269 42.4231 43.75 44.4951 43.75H50.5C60.8554 43.75 69.25 35.3554 69.25 25C69.25 14.6446 60.8554 6.25 50.5 6.25H25.5C15.1446 6.25 6.75 14.6446 6.75 25C6.75 35.3554 15.1446 43.75 25.5 43.75H29.7202C30.9635 43.75 32.1558 44.2439 33.0349 45.1229L35.6238 47.7118C37.0889 49.1769 39.076 50 41.148 50H50.5C64.3071 50 75.5 38.8071 75.5 25C75.5 11.1929 64.3071 -1.20706e-06 50.5 0L25.5 5.1658e-06C11.6929 6.37286e-06 0.499999 11.1929 0.5 25C0.500001 38.8071 11.6929 50 25.5 50Z" fill="#53535C"/>
<path d="M70.8127 1.5625C70.8127 2.42545 71.5122 3.125 72.3752 3.125H73.9377C74.8007 3.125 75.5002 2.42545 75.5002 1.5625C75.5002 0.699556 74.8007 0 73.9377 0H72.3752C71.5122 0 70.8127 0.699556 70.8127 1.5625Z" fill="#53535C"/>
</g>
<defs>
<clipPath id="clip0_1453_582">
<rect width="75" height="50" fill="white" transform="translate(0.5)"/>
</clipPath>
</defs>
</svg>
