<svg width="56" height="50" viewBox="0 0 56 50" fill="none" xmlns="http://www.w3.org/2000/svg">
<g clip-path="url(#clip0_1453_623)">
<path d="M7.92908 37.7963C9.95562 39.2099 13.2413 39.2099 15.2679 37.7963C17.2943 36.3827 17.2943 34.0909 15.2679 32.6774C13.2413 31.2638 9.95562 31.2638 7.92908 32.6774C5.90254 34.0909 5.90254 36.3827 7.92908 37.7963Z" fill="#53535C"/>
<path d="M28.9639 18.6006C32.0038 20.7209 36.9322 20.7209 39.972 18.6006C43.0118 16.4802 43.0118 13.0426 39.972 10.9223C36.9322 8.80195 32.0038 8.80195 28.9639 10.9223C25.9241 13.0426 25.9241 16.4802 28.9639 18.6006Z" fill="#53535C"/>
<path d="M17.7983 28.1994C20.3315 29.9662 24.4386 29.9662 26.9717 28.1994C29.5049 26.4324 29.5049 23.5677 26.9717 21.8007C24.4386 20.0339 20.3315 20.0339 17.7983 21.8007C15.2651 23.5677 15.2651 26.4324 17.7983 28.1994Z" fill="#53535C"/>
<path d="M1.50882 26.9185C3.02873 27.9786 5.49298 27.9786 7.01288 26.9185C8.53278 25.8584 8.53278 24.1395 7.01288 23.0793C5.49298 22.0191 3.02873 22.0191 1.50882 23.0793C-0.0110801 24.1395 -0.0110787 25.8584 1.50882 26.9185Z" fill="#53535C"/>
<path d="M17.7983 7.72281C20.3315 9.48973 24.4386 9.48973 26.9717 7.72281C29.5049 5.95589 29.5049 3.09114 26.9717 1.32422C24.4386 -0.442708 20.3315 -0.442709 17.7983 1.32422C15.2651 3.09114 15.2651 5.95589 17.7983 7.72281Z" fill="#53535C"/>
<path d="M7.92908 17.3216C9.95562 18.7352 13.2413 18.7352 15.2679 17.3216C17.2943 15.9081 17.2943 13.6162 15.2679 12.2027C13.2413 10.7892 9.95562 10.7892 7.92908 12.2027C5.90254 13.6162 5.90255 15.9081 7.92908 17.3216Z" fill="#53535C"/>
<path d="M17.7983 48.674C20.3315 50.4409 24.4386 50.4409 26.9717 48.674C29.5049 46.907 29.5049 44.0423 26.9717 42.2753C24.4386 40.5085 20.3315 40.5085 17.7983 42.2753C15.2651 44.0423 15.2651 46.907 17.7983 48.674Z" fill="#53535C"/>
<path d="M42.3433 28.8389C45.3831 30.9592 50.3117 30.9592 53.3514 28.8389C56.3913 26.7186 56.3913 23.2809 53.3514 21.1606C50.3117 19.0402 45.3831 19.0402 42.3433 21.1606C39.3035 23.2809 39.3035 26.7186 42.3433 28.8389Z" fill="#53535C"/>
<path d="M28.9634 39.0761C32.0033 41.1965 36.9317 41.1965 39.9716 39.0761C43.0113 36.9558 43.0113 33.5182 39.9716 31.3978C36.9317 29.2776 32.0033 29.2776 28.9634 31.3978C25.9237 33.5182 25.9237 36.9558 28.9634 39.0761Z" fill="#53535C"/>
</g>
<defs>
<clipPath id="clip0_1453_623">
<rect width="55.2632" height="50" fill="white" transform="translate(0.368408)"/>
</clipPath>
</defs>
</svg>
