<svg width="21" height="20" viewBox="0 0 21 20" fill="none" xmlns="http://www.w3.org/2000/svg">
<path fill-rule="evenodd" clip-rule="evenodd" d="M11.3333 2C11.3333 1.44772 10.8855 1 10.3333 1C9.78097 1 9.33325 1.44772 9.33325 2V8V8.5C9.33325 8.77614 9.10939 9 8.83325 9C8.55711 9 8.33325 8.77614 8.33325 8.5V8V3C8.33325 2.44772 7.88554 2 7.33325 2C6.78097 2 6.33325 2.44772 6.33325 3V8V8.5C6.33325 8.77614 6.10939 9 5.83325 9C5.55711 9 5.33325 8.77614 5.33325 8.5V8V5C5.33325 4.44772 4.88554 4 4.33325 4C3.78097 4 3.33325 4.44772 3.33325 5V11V12C3.33325 15.866 6.46726 19 10.3333 19C14.1992 19 17.3333 15.866 17.3333 12V11V8C17.3333 7.44772 16.8855 7 16.3333 7C15.781 7 15.3333 7.44772 15.3333 8V11V11.5C15.3333 11.7761 15.1094 12 14.8333 12C14.5571 12 14.3333 11.7761 14.3333 11.5V11V10V8V3C14.3333 2.44772 13.8855 2 13.3333 2C12.781 2 12.3333 2.44772 12.3333 3V8V8.5C12.3333 8.77614 12.1094 9 11.8333 9C11.5571 9 11.3333 8.77614 11.3333 8.5V8V2Z" fill="white"/>
</svg>
