<svg width="100" height="50" viewBox="0 0 100 50" fill="none" xmlns="http://www.w3.org/2000/svg">
<path d="M3.51514 28.9385H6.2925V42.5568H3.51514V28.9385Z" fill="#53535C"/>
<path d="M7.90305 37.8905C7.90122 36.9123 8.1896 35.9556 8.73171 35.1414C9.27381 34.3272 10.0453 33.6921 10.9485 33.3165C11.8516 32.9409 12.8459 32.8417 13.8055 33.0314C14.7651 33.2211 15.6469 33.6912 16.3391 34.3823C17.0315 35.0732 17.5032 35.9541 17.6947 36.9133C17.8863 37.8725 17.7889 38.8671 17.415 39.771C17.0411 40.6748 16.4075 41.4474 15.5942 41.9911C14.7811 42.5348 13.8249 42.8249 12.8468 42.8249C12.1962 42.8323 11.5508 42.7099 10.9483 42.4646C10.3457 42.2194 9.7982 41.8564 9.33777 41.3968C8.87734 40.9373 8.51328 40.3904 8.26692 39.7882C8.02055 39.1862 7.89685 38.541 7.90305 37.8905ZM14.9945 37.8905C14.9836 37.4682 14.8485 37.0585 14.6059 36.7127C14.3634 36.3669 14.0242 36.1003 13.6309 35.9462C13.2376 35.7921 12.8076 35.7574 12.3947 35.8465C11.9818 35.9355 11.6043 36.1443 11.3094 36.4468C11.0146 36.7492 10.8155 37.132 10.737 37.5471C10.6586 37.9621 10.7042 38.3911 10.8683 38.7803C11.0324 39.1695 11.3076 39.5018 11.6594 39.7354C12.0114 39.969 12.4243 40.0937 12.8468 40.0938C13.1357 40.102 13.4233 40.0501 13.6912 39.9415C13.9591 39.8328 14.2017 39.6699 14.4036 39.4628C14.6053 39.2558 14.7621 39.0092 14.8637 38.7386C14.9655 38.4679 15.01 38.1792 14.9945 37.8905Z" fill="#53535C"/>
<path d="M28.9551 33.2246V42.0936C28.9551 45.232 26.5018 46.556 24.0207 46.556C23.1483 46.6209 22.2747 46.4444 21.4958 46.046C20.7169 45.6475 20.0627 45.0424 19.6048 44.297L21.9933 42.9176C22.1828 43.2996 22.4827 43.616 22.8541 43.8256C23.2254 44.0352 23.6512 44.1285 24.0763 44.0933C24.3559 44.14 24.6426 44.1218 24.9141 44.04C25.1857 43.9583 25.4348 43.8154 25.6424 43.6221C25.8498 43.4289 26.0102 43.1906 26.1111 42.9256C26.212 42.6606 26.2506 42.376 26.224 42.0936V41.2326C25.8976 41.6344 25.4809 41.9535 25.0081 42.1642C24.5352 42.3749 24.0193 42.4713 23.5023 42.4455C22.2451 42.4455 21.0396 41.9461 20.1505 41.0571C19.2616 40.1682 18.7622 38.9625 18.7622 37.7054C18.7622 36.4482 19.2616 35.2426 20.1505 34.3537C21.0396 33.4648 22.2451 32.9654 23.5023 32.9654C24.0191 32.9418 24.5341 33.0391 25.0067 33.2496C25.4792 33.4602 25.8961 33.7781 26.224 34.1781V33.2523L28.9551 33.2246ZM26.224 37.7054C26.2426 37.2552 26.1259 36.8097 25.8892 36.4262C25.6525 36.0427 25.3065 35.7388 24.8957 35.5536C24.4849 35.3683 24.0281 35.3102 23.584 35.3867C23.1398 35.463 22.7288 35.6706 22.4036 35.9824C22.0783 36.2944 21.8538 36.6965 21.7589 37.137C21.6639 37.5774 21.7029 38.0364 21.8708 38.4545C22.0388 38.8727 22.3279 39.2311 22.7011 39.4836C23.0743 39.7363 23.5145 39.8714 23.9651 39.8718C24.2593 39.8925 24.5545 39.8516 24.8318 39.7513C25.1091 39.651 25.3624 39.4938 25.5752 39.2897C25.788 39.0856 25.9557 38.8391 26.0675 38.5663C26.1792 38.2934 26.2326 38.0002 26.224 37.7054Z" fill="#53535C"/>
<path d="M30.5569 37.8905C30.555 36.9123 30.8434 35.9556 31.3855 35.1414C31.9276 34.3272 32.6991 33.6921 33.6022 33.3165C34.5054 32.9409 35.4997 32.8417 36.4593 33.0314C37.4189 33.2211 38.3007 33.6912 38.993 34.3823C39.6853 35.0732 40.157 35.9541 40.3486 36.9133C40.5401 37.8725 40.4427 38.8671 40.0688 39.771C39.6949 40.6748 39.0612 41.4474 38.2481 41.9911C37.4349 42.5348 36.4787 42.8249 35.5006 42.8249C34.8501 42.8323 34.2046 42.7099 33.6021 42.4646C32.9995 42.2194 32.452 41.8564 31.9916 41.3968C31.5312 40.9373 31.1671 40.3904 30.9207 39.7882C30.6743 39.1862 30.5506 38.541 30.5569 37.8905ZM37.6484 37.8905C37.6374 37.4682 37.5022 37.0585 37.2597 36.7127C37.0171 36.3669 36.678 36.1003 36.2847 35.9462C35.8915 35.7921 35.4615 35.7574 35.0485 35.8465C34.6356 35.9355 34.2581 36.1443 33.9632 36.4468C33.6684 36.7492 33.4693 37.132 33.3908 37.5471C33.3123 37.9621 33.358 38.3911 33.5221 38.7803C33.6862 39.1695 33.9614 39.5018 34.3132 39.7354C34.6652 39.969 35.0781 40.0937 35.5006 40.0938C35.788 40.0993 36.0735 40.0456 36.3393 39.9358C36.605 39.826 36.8453 39.6626 37.0451 39.4559C37.2449 39.2492 37.3999 39.0034 37.5006 38.7341C37.6012 38.4648 37.6452 38.1775 37.6299 37.8905H37.6484Z" fill="#53535C"/>
<path d="M41.7314 30.725C41.7314 30.3917 41.8303 30.0659 42.0154 29.7889C42.2006 29.5118 42.4637 29.2958 42.7715 29.1683C43.0795 29.0407 43.4182 29.0074 43.7451 29.0724C44.0719 29.1374 44.3721 29.2979 44.6078 29.5335C44.8435 29.7692 45.0039 30.0694 45.0689 30.3962C45.134 30.7231 45.1006 31.0619 44.9731 31.3698C44.8456 31.6776 44.6296 31.9408 44.3525 32.1259C44.0754 32.311 43.7497 32.4099 43.4163 32.4099C42.9703 32.4075 42.5431 32.2292 42.2276 31.9137C41.9121 31.5983 41.7339 31.1711 41.7314 30.725ZM42.0184 33.2246H44.7957V42.5565H42.0184V33.2246Z" fill="#53535C"/>
<path d="M56.9044 37.8902C56.9381 38.5071 56.8494 39.1245 56.6436 39.707C56.4376 40.2894 56.1186 40.8254 55.7046 41.284C55.2907 41.7426 54.7902 42.1149 54.2319 42.3793C53.6736 42.6437 53.0685 42.7951 52.4514 42.8247C51.9334 42.8495 51.4161 42.7605 50.9363 42.5637C50.4564 42.367 50.0255 42.0674 49.6741 41.686V46.3149H46.8967V33.2242H49.6741V34.1037C50.0255 33.7224 50.4564 33.4227 50.9363 33.226C51.4161 33.0292 51.9334 32.9402 52.4514 32.965C53.0677 32.9946 53.672 33.1457 54.2296 33.4095C54.7874 33.6734 55.2875 34.0448 55.7012 34.5025C56.115 34.9601 56.4342 35.4949 56.6407 36.0763C56.8473 36.6576 56.9369 37.2741 56.9044 37.8902ZM54.1271 37.8902C54.1161 37.4557 53.9779 37.0339 53.7295 36.6772C53.4812 36.3205 53.1338 36.0443 52.7301 35.8831C52.3265 35.7219 51.8844 35.6826 51.4587 35.7701C51.0329 35.8576 50.6421 36.068 50.3348 36.3754C50.0274 36.6827 49.817 37.0734 49.7295 37.4992C49.642 37.925 49.6813 38.3671 49.8425 38.7707C50.0038 39.1743 50.2799 39.5219 50.6366 39.7701C50.9934 40.0184 51.4151 40.1567 51.8496 40.1676C52.1529 40.187 52.4567 40.1411 52.7408 40.0332C53.0248 39.9253 53.2825 39.7578 53.4965 39.5422C53.7104 39.3264 53.8758 39.0674 53.9814 38.7824C54.0869 38.4975 54.1303 38.1933 54.1086 37.8902H54.1271Z" fill="#53535C"/>
<path d="M65.5522 39.7606C65.5522 41.9085 63.7006 42.8249 61.6639 42.8249C60.8503 42.897 60.0337 42.7239 59.3193 42.3279C58.605 41.9319 58.0254 41.3312 57.6553 40.6031L60.0809 39.2237C60.1793 39.5604 60.3901 39.8534 60.678 40.0538C60.966 40.2542 61.3139 40.35 61.6639 40.3253C62.3398 40.3253 62.673 40.1124 62.673 39.7421C62.673 38.7144 58.0441 39.2607 58.0441 36.039C58.0441 34.0022 59.766 32.9745 61.7472 32.9745C62.4783 32.9524 63.202 33.126 63.8434 33.4777C64.4848 33.8292 65.0203 34.346 65.3949 34.9742L62.9601 36.2519C62.8525 36.0074 62.6762 35.7993 62.4527 35.6531C62.2292 35.5068 61.9681 35.4286 61.7009 35.4279C61.2196 35.4279 60.9233 35.6131 60.9233 35.9556C60.9604 37.0202 65.5522 36.3074 65.5522 39.7606Z" fill="#53535C"/>
<path d="M75.772 33.2246V42.5566H72.9946V41.6864C72.6715 42.073 72.2616 42.3777 71.7981 42.5757C71.3348 42.7736 70.8311 42.859 70.3283 42.8251C68.4768 42.8251 66.8381 41.4826 66.8381 38.9553V33.2246H69.6155V38.5479C69.5911 38.7748 69.6175 39.0042 69.6928 39.2196C69.7681 39.435 69.8904 39.6309 70.0509 39.7931C70.2113 39.9554 70.4059 40.0798 70.6204 40.1575C70.8349 40.2352 71.0641 40.264 71.2912 40.2422C72.3096 40.2422 73.0224 39.6496 73.0224 38.3258V33.2246H75.772Z" fill="#53535C"/>
<path d="M91.8259 36.8349V42.5563H89.0485V37.0757C89.0485 36.1499 88.5948 35.5388 87.7061 35.5388C86.8174 35.5388 86.2434 36.1962 86.2434 37.2978V42.5563H83.466V37.0757C83.466 36.1499 83.0216 35.5388 82.1236 35.5388C81.2257 35.5388 80.6702 36.1962 80.6702 37.2978V42.5563H77.8928V33.2244H80.6702V34.0854C80.9605 33.7051 81.3411 33.4034 81.7777 33.2078C82.2143 33.0121 82.6928 32.9287 83.1698 32.9652C83.6488 32.9418 84.1257 33.0431 84.554 33.2588C84.9823 33.4746 85.3474 33.7976 85.6139 34.1964C85.9237 33.7795 86.3342 33.4478 86.8069 33.2325C87.2797 33.0172 87.7993 32.9252 88.3171 32.9652C90.428 32.9652 91.8259 34.5019 91.8259 36.8349Z" fill="#53535C"/>
<path d="M94.1954 33.169C95.3407 33.169 96.2691 32.2405 96.2691 31.0952C96.2691 29.9499 95.3407 29.0215 94.1954 29.0215C93.0501 29.0215 92.1216 29.9499 92.1216 31.0952C92.1216 32.2405 93.0501 33.169 94.1954 33.169Z" fill="#53535C"/>
<path d="M34.9449 21.8733C40.3084 21.8733 44.6564 17.5252 44.6564 12.1617C44.6564 6.79819 40.3084 2.4502 34.9449 2.4502C29.5814 2.4502 25.2334 6.79819 25.2334 12.1617C25.2334 17.5252 29.5814 21.8733 34.9449 21.8733Z" fill="#53535C"/>
<path d="M56.6549 21.8733C62.0184 21.8733 66.3663 17.5252 66.3663 12.1617C66.3663 6.79819 62.0184 2.4502 56.6549 2.4502C51.2914 2.4502 46.9434 6.79819 46.9434 12.1617C46.9434 17.5252 51.2914 21.8733 56.6549 21.8733Z" fill="#53535C"/>
<path d="M22.9474 2.4502H3.53369V21.8639H22.9474V2.4502Z" fill="#53535C"/>
</svg>
