<svg width="21" height="20" viewBox="0 0 21 20" fill="none" xmlns="http://www.w3.org/2000/svg">
<g clip-path="url(#clip0_1451_10402)">
<path d="M10.6665 12.5C12.0472 12.5 13.1665 11.3807 13.1665 10C13.1665 8.61929 12.0472 7.5 10.6665 7.5C9.28579 7.5 8.1665 8.61929 8.1665 10C8.1665 11.3807 9.28579 12.5 10.6665 12.5Z" fill="white"/>
<path fill-rule="evenodd" clip-rule="evenodd" d="M1.33076 10.5904C1.1839 10.2087 1.18402 9.78563 1.33111 9.40408C2.77528 5.65788 6.4098 3 10.6651 3C14.9225 3 18.5585 5.66051 20.0012 9.40962C20.1481 9.79127 20.1479 10.2144 20.0009 10.5959C18.5567 14.3421 14.9222 17 10.6669 17C6.40948 17 2.77348 14.3395 1.33076 10.5904ZM14.6669 10C14.6669 12.2091 12.876 14 10.6669 14C8.45774 14 6.66688 12.2091 6.66688 10C6.66688 7.79086 8.45774 6 10.6669 6C12.876 6 14.6669 7.79086 14.6669 10Z" fill="white"/>
</g>
<defs>
<clipPath id="clip0_1451_10402">
<rect width="20" height="20" fill="white" transform="translate(0.666504)"/>
</clipPath>
</defs>
</svg>
