<svg width="190" height="50" viewBox="0 0 190 50" fill="none" xmlns="http://www.w3.org/2000/svg">
<path d="M64.7572 36.0061C63.9075 36.0523 63.0671 35.8107 62.3715 35.3204C62.081 35.105 61.8471 34.822 61.6902 34.496C61.5334 34.1698 61.4584 33.8106 61.4715 33.449V20.2061C61.4647 20.1501 61.4705 20.0931 61.489 20.0397C61.5072 19.9863 61.5375 19.9378 61.5775 19.8978C61.6175 19.8578 61.666 19.8276 61.7194 19.8093C61.7728 19.7908 61.8298 19.785 61.8858 19.7918H64.2858C64.5572 19.7918 64.6858 19.9347 64.6858 20.2061V32.4204C64.6858 32.9633 64.9287 33.2347 65.4287 33.2347C65.6407 33.2434 65.8527 33.2194 66.0572 33.1633C66.343 33.1633 66.5001 33.249 66.5144 33.5061L66.7287 35.2918C66.739 35.344 66.738 35.3976 66.7258 35.4493C66.7137 35.5008 66.6905 35.5494 66.658 35.5913C66.6255 35.6333 66.5844 35.6678 66.5375 35.6926C66.4905 35.7173 66.4388 35.7317 66.3858 35.7347C65.8601 35.9084 65.3108 36 64.7572 36.0061Z" fill="#53535C"/>
<path d="M78.2563 34.4782C77.0504 35.4746 75.5348 36.0196 73.9706 36.0196C72.4063 36.0196 70.8908 35.4746 69.6848 34.4782C68.625 33.4082 68.0303 31.9629 68.0303 30.4568C68.0303 28.9506 68.625 27.5053 69.6848 26.4353C70.8931 25.4441 72.4077 24.9023 73.9706 24.9023C75.5334 24.9023 77.048 25.4441 78.2563 26.4353C79.2918 27.5152 79.87 28.9535 79.87 30.4496C79.87 31.9458 79.2918 33.3841 78.2563 34.4639V34.4782ZM71.942 32.5925C72.5017 33.0995 73.2297 33.3802 73.9848 33.3802C74.74 33.3802 75.4681 33.0995 76.0277 32.5925C76.5343 32.0102 76.8131 31.2643 76.8131 30.4925C76.8131 29.7208 76.5343 28.9749 76.0277 28.3925C75.4681 27.8856 74.74 27.6048 73.9848 27.6048C73.2297 27.6048 72.5017 27.8856 71.942 28.3925C71.4356 28.9749 71.1566 29.7208 71.1566 30.4925C71.1566 31.2643 71.4356 32.0102 71.942 32.5925Z" fill="#53535C"/>
<path d="M93.0854 25.2638C93.3568 25.2638 93.4854 25.4066 93.4854 25.678V35.9209C93.5104 36.6123 93.381 37.3005 93.1067 37.9355C92.8324 38.5706 92.4201 39.1366 91.8997 39.5923C90.7445 40.5773 89.2591 41.0878 87.7425 41.0209C86.3728 41.069 85.0213 40.695 83.8711 39.9495C83.38 39.627 82.9604 39.2069 82.6385 38.7155C82.3165 38.2239 82.0991 37.6715 81.9997 37.0923C81.9997 36.8066 81.9997 36.678 82.3854 36.678H84.7854C84.8873 36.6815 84.9861 36.7145 85.0697 36.7728C85.1534 36.831 85.2184 36.9122 85.2568 37.0066C85.4125 37.4405 85.7228 37.8018 86.1283 38.0209C86.6224 38.2759 87.1724 38.4036 87.7283 38.3923C88.0637 38.4108 88.3994 38.362 88.7158 38.2492C89.0323 38.1365 89.323 37.9616 89.5711 37.7352C89.7978 37.4983 89.9741 37.2179 90.0895 36.911C90.205 36.6042 90.257 36.277 90.2425 35.9495V35.0495C89.3833 35.6815 88.3374 36.0083 87.2711 35.978C86.5248 36.0052 85.7808 35.8813 85.0835 35.6138C84.3864 35.346 83.7505 34.9405 83.214 34.4209C82.1841 33.3555 81.6084 31.9315 81.6084 30.4495C81.6084 28.9676 82.1841 27.5436 83.214 26.478C83.7531 25.9632 84.3898 25.5615 85.0865 25.2965C85.7834 25.0315 86.5261 24.9086 87.2711 24.9352C88.3683 24.9062 89.4423 25.2542 90.314 25.9209V25.6923C90.3074 25.6376 90.3131 25.582 90.3307 25.5298C90.3483 25.4776 90.3773 25.4299 90.4155 25.3902C90.4538 25.3505 90.5005 25.3199 90.5521 25.3005C90.6038 25.281 90.6591 25.2735 90.714 25.278L93.0854 25.2638ZM87.5425 33.4352C87.9105 33.4466 88.2767 33.377 88.6148 33.2313C88.953 33.0858 89.2551 32.8676 89.4997 32.5923C89.9747 31.979 90.2324 31.2252 90.2324 30.4495C90.2324 29.6738 89.9747 28.92 89.4997 28.3066C89.256 28.0352 88.9557 27.8202 88.6201 27.677C88.2844 27.5339 87.9215 27.466 87.5568 27.478C87.1845 27.4663 86.8143 27.5356 86.4714 27.6812C86.1285 27.8268 85.8214 28.045 85.5711 28.3209C85.045 28.9076 84.7683 29.6763 84.7997 30.4638C84.774 31.2435 85.0445 32.004 85.5568 32.5923C85.8077 32.8675 86.115 33.0853 86.4577 33.2308C86.8004 33.3762 87.1704 33.4459 87.5425 33.4352Z" fill="#53535C"/>
<path d="M105.813 34.478C104.605 35.4693 103.091 36.011 101.528 36.011C99.9648 36.011 98.4502 35.4693 97.242 34.478C96.2055 33.3957 95.627 31.9551 95.627 30.4565C95.627 28.9581 96.2055 27.5174 97.242 26.4351C98.4514 25.4464 99.9655 24.9062 101.528 24.9062C103.09 24.9062 104.604 25.4464 105.813 26.4351C106.849 27.515 107.427 28.9532 107.427 30.4494C107.427 31.9455 106.849 33.3838 105.813 34.4637V34.478ZM99.4848 32.5922C99.7587 32.8528 100.082 33.0564 100.435 33.1912C100.788 33.3261 101.164 33.3897 101.542 33.378C101.917 33.3877 102.291 33.3234 102.642 33.1885C102.992 33.0537 103.313 32.8511 103.585 32.5922C104.083 32.006 104.357 31.2617 104.357 30.4923C104.357 29.7228 104.083 28.9785 103.585 28.3923C103.313 28.1335 102.992 27.9308 102.642 27.7961C102.291 27.6612 101.917 27.5968 101.542 27.6065C101.164 27.595 100.788 27.6584 100.435 27.7933C100.082 27.9281 99.7587 28.1318 99.4848 28.3923C98.9867 28.9785 98.7131 29.7228 98.7131 30.4923C98.7131 31.2617 98.9867 32.006 99.4848 32.5922Z" fill="#53535C"/>
<path d="M112.585 22.8346C112.208 23.1651 111.723 23.3473 111.221 23.3473C110.719 23.3473 110.234 23.1651 109.857 22.8346C109.685 22.673 109.549 22.4781 109.456 22.262C109.363 22.0459 109.314 21.8129 109.314 21.5774C109.314 21.342 109.363 21.1091 109.456 20.8929C109.549 20.6767 109.685 20.4819 109.857 20.3203C110.238 19.998 110.721 19.8213 111.221 19.8213C111.72 19.8213 112.204 19.998 112.585 20.3203C112.756 20.4819 112.893 20.6767 112.986 20.8929C113.079 21.1091 113.127 21.342 113.127 21.5774C113.127 21.8129 113.079 22.0459 112.986 22.262C112.893 22.4781 112.756 22.673 112.585 22.8346ZM112.885 36.006C112.036 36.0477 111.197 35.8066 110.499 35.3203C110.213 35.1017 109.983 34.8177 109.829 34.4921C109.675 34.1666 109.601 33.8089 109.614 33.4489V25.6774C109.607 25.6214 109.613 25.5644 109.631 25.511C109.649 25.4576 109.68 25.4091 109.72 25.3691C109.76 25.3291 109.808 25.2989 109.862 25.2806C109.915 25.2621 109.972 25.2563 110.028 25.2631H112.428C112.699 25.2631 112.828 25.406 112.828 25.6774V32.4203C112.828 32.9631 113.071 33.2346 113.557 33.2346C113.773 33.2424 113.99 33.2183 114.199 33.1631C114.485 33.1631 114.642 33.2489 114.657 33.506L114.871 35.2917C114.881 35.3439 114.88 35.3974 114.868 35.4491C114.856 35.5007 114.833 35.5493 114.8 35.5911C114.768 35.6331 114.727 35.6677 114.68 35.6924C114.633 35.7171 114.581 35.7316 114.528 35.7346C113.998 35.9093 113.444 36.0009 112.885 36.006Z" fill="#53535C"/>
<path d="M123.699 24.9205C124.448 24.8909 125.196 25.0122 125.898 25.2772C126.6 25.5423 127.242 25.9456 127.784 26.4633C128.795 27.5476 129.356 28.9743 129.356 30.4562C129.356 31.938 128.795 33.3649 127.784 34.449C127.244 34.9715 126.603 35.3787 125.901 35.6463C125.199 35.914 124.45 36.0365 123.699 36.0062C122.629 36.03 121.581 35.704 120.713 35.0776V40.2347C120.713 40.5062 120.57 40.6347 120.299 40.6347H117.899C117.844 40.645 117.788 40.6417 117.734 40.6253C117.681 40.6087 117.633 40.5796 117.593 40.5402C117.554 40.5007 117.525 40.4525 117.508 40.3992C117.492 40.346 117.489 40.2896 117.499 40.2347V28.5205C117.516 28.4059 117.505 28.289 117.469 28.179C117.433 28.0692 117.371 27.9692 117.289 27.8873C117.207 27.8055 117.107 27.7439 116.997 27.7075C116.888 27.671 116.771 27.6609 116.656 27.6776H116.185C115.87 27.6776 115.713 27.5633 115.713 27.3347V25.649C115.706 25.5447 115.734 25.441 115.794 25.3553C115.854 25.2695 115.941 25.2067 116.042 25.1776C116.536 24.998 117.059 24.9109 117.584 24.9205C118.109 24.874 118.635 24.9853 119.096 25.2397C119.556 25.4943 119.931 25.8806 120.17 26.349C120.63 25.8836 121.181 25.5169 121.787 25.2712C122.394 25.0256 123.044 24.9062 123.699 24.9205ZM121.47 32.5919C121.725 32.8582 122.031 33.07 122.37 33.2147C122.709 33.3595 123.073 33.434 123.442 33.434C123.81 33.434 124.175 33.3595 124.513 33.2147C124.852 33.07 125.158 32.8582 125.413 32.5919C125.95 31.9935 126.231 31.2093 126.199 30.4062C126.236 29.6025 125.954 28.8165 125.413 28.2205C125.158 27.9543 124.852 27.7425 124.513 27.5977C124.175 27.4529 123.81 27.3783 123.442 27.3783C123.073 27.3783 122.709 27.4529 122.37 27.5977C122.031 27.7425 121.725 27.9543 121.47 28.2205C120.95 28.827 120.68 29.608 120.713 30.4062C120.684 31.2037 120.954 31.9833 121.47 32.5919Z" fill="#53535C"/>
<path d="M136.099 36.0057C134.817 36.0584 133.545 35.7517 132.428 35.12C131.979 34.85 131.598 34.4824 131.311 34.0447C131.024 33.607 130.839 33.1103 130.771 32.5914C130.771 32.3057 130.871 32.1629 131.185 32.1629H133.285C133.385 32.1669 133.482 32.1981 133.565 32.2537C133.648 32.3091 133.714 32.3864 133.756 32.4771C134.056 33.2486 134.842 33.6343 136.099 33.6343C136.538 33.6544 136.974 33.566 137.371 33.3771C137.507 33.3154 137.625 33.2177 137.71 33.0944C137.796 32.9711 137.846 32.8269 137.856 32.6771C137.856 32.3057 137.628 32.0486 137.171 31.8771C136.628 31.6967 136.068 31.5769 135.499 31.52C134.826 31.4437 134.158 31.3244 133.499 31.1629C132.859 31.018 132.277 30.6846 131.828 30.2057C131.563 29.8803 131.369 29.5039 131.256 29.1C131.143 28.6961 131.115 28.2733 131.172 27.858C131.23 27.4426 131.372 27.0434 131.591 26.6856C131.809 26.3276 132.099 26.0184 132.442 25.7771C133.472 25.1213 134.68 24.8017 135.899 24.8629C137.08 24.823 138.248 25.115 139.271 25.7057C139.683 25.9393 140.038 26.2617 140.31 26.6497C140.581 27.0377 140.763 27.4814 140.842 27.9486C140.842 28.2343 140.713 28.3771 140.456 28.3771H138.342C138.253 28.3824 138.164 28.3607 138.088 28.3149C138.012 28.269 137.951 28.201 137.913 28.12C137.772 27.7817 137.506 27.5106 137.171 27.3629C136.792 27.1649 136.369 27.0664 135.942 27.0771C135.523 27.0544 135.106 27.138 134.728 27.32C134.595 27.3714 134.48 27.4614 134.398 27.5786C134.317 27.6957 134.272 27.8346 134.271 27.9771C134.28 28.1726 134.351 28.3599 134.475 28.5116C134.598 28.6633 134.767 28.7713 134.956 28.82C135.505 29.0269 136.075 29.1706 136.656 29.2486C137.324 29.3366 137.987 29.4606 138.642 29.62C139.282 29.765 139.864 30.0983 140.313 30.5771C140.554 30.841 140.739 31.1497 140.859 31.4857C140.979 31.8216 141.032 32.178 141.013 32.5343C141.026 33.0281 140.91 33.5167 140.677 33.9524C140.444 34.388 140.102 34.7559 139.685 35.02C138.618 35.7053 137.367 36.049 136.099 36.0057Z" fill="#53535C"/>
<path d="M156.114 35.2922C156.122 35.343 156.12 35.3948 156.108 35.4447C156.095 35.4947 156.074 35.5415 156.043 35.5828C156.013 35.6241 155.974 35.6588 155.93 35.685C155.885 35.7111 155.837 35.7281 155.785 35.7351C155.264 35.9054 154.72 35.997 154.171 36.0065C153.628 36.0628 153.08 35.978 152.58 35.7602C152.078 35.5425 151.642 35.1992 151.314 34.7637C150.305 35.6312 149 36.0764 147.671 36.0065C147.054 36.035 146.438 35.934 145.862 35.7101C145.287 35.4862 144.764 35.1444 144.328 34.7065C143.895 34.2478 143.56 33.7064 143.341 33.1148C143.123 32.5232 143.026 31.8937 143.057 31.2637V25.678C143.057 25.4065 143.185 25.2637 143.457 25.2637H145.857C146.128 25.2637 146.257 25.4065 146.257 25.678V30.8351C146.231 31.4777 146.45 32.106 146.871 32.5922C147.081 32.8151 147.337 32.9902 147.62 33.1061C147.903 33.222 148.208 33.2757 148.514 33.2637C148.827 33.2774 149.14 33.229 149.434 33.121C149.728 33.0131 149.998 32.848 150.228 32.6351C150.445 32.4108 150.615 32.1442 150.725 31.8518C150.837 31.5594 150.885 31.2474 150.871 30.9351V25.678C150.871 25.4065 151 25.2637 151.271 25.2637H153.7C153.971 25.2637 154.1 25.4065 154.1 25.678V32.4065C154.1 32.9637 154.343 33.2351 154.814 33.2351C155.035 33.2437 155.257 33.2197 155.471 33.1637C155.525 33.1485 155.583 33.1458 155.637 33.1558C155.693 33.1657 155.744 33.188 155.79 33.221C155.835 33.254 155.872 33.2968 155.9 33.3462C155.925 33.3957 155.94 33.4505 155.943 33.5065L156.114 35.2922Z" fill="#53535C"/>
<path d="M178.815 35.2913C178.828 35.3425 178.829 35.3959 178.819 35.4476C178.808 35.4992 178.787 35.548 178.755 35.5903C178.724 35.6326 178.684 35.6675 178.637 35.6923C178.591 35.7173 178.539 35.7316 178.487 35.7342C177.955 35.9069 177.402 35.9985 176.844 36.0056C175.994 36.0495 175.155 35.8082 174.458 35.3199C174.157 35.1108 173.912 34.8306 173.745 34.5042C173.578 34.1778 173.494 33.815 173.501 33.4485V30.0913C173.531 29.4508 173.317 28.8226 172.901 28.3342C172.701 28.1109 172.452 27.9349 172.177 27.8188C171.899 27.7028 171.601 27.6495 171.301 27.6628C171.031 27.6526 170.762 27.7039 170.514 27.8128C170.267 27.9216 170.048 28.0853 169.872 28.2913C169.495 28.77 169.302 29.3683 169.329 29.977V35.2485C169.329 35.5199 169.201 35.6628 168.929 35.6628H166.515C166.459 35.6698 166.402 35.6638 166.349 35.6455C166.295 35.627 166.247 35.5968 166.207 35.5568C166.167 35.5169 166.137 35.4683 166.118 35.4149C166.099 35.3615 166.094 35.3046 166.101 35.2485V30.0913C166.132 29.4578 165.934 28.834 165.544 28.3342C165.369 28.1242 165.151 27.9552 164.904 27.8392C164.658 27.7232 164.388 27.6629 164.115 27.6628C163.824 27.651 163.534 27.7009 163.262 27.8093C162.991 27.9176 162.747 28.0819 162.544 28.2913C162.135 28.7548 161.925 29.3602 161.958 29.977V35.2485C161.965 35.3046 161.959 35.3615 161.941 35.4149C161.922 35.4683 161.892 35.5169 161.852 35.5568C161.812 35.5968 161.764 35.627 161.711 35.6455C161.657 35.6638 161.599 35.6698 161.544 35.6628H159.215C158.944 35.6628 158.815 35.5199 158.815 35.2485V28.5199C158.832 28.4053 158.822 28.2885 158.785 28.1785C158.749 28.0686 158.688 27.9686 158.605 27.8868C158.524 27.8049 158.424 27.7433 158.314 27.7069C158.204 27.6705 158.087 27.6603 157.972 27.677H157.501C157.187 27.677 157.029 27.5628 157.029 27.3342V25.6485C157.022 25.5442 157.051 25.4405 157.111 25.3548C157.171 25.2689 157.258 25.2062 157.358 25.177C157.852 24.9975 158.375 24.9103 158.901 24.9199C159.405 24.8769 159.912 24.9775 160.362 25.21C160.812 25.4426 161.187 25.7976 161.444 26.2342C161.925 25.7775 162.497 25.4249 163.121 25.1988C163.745 24.9726 164.409 24.8778 165.072 24.9199C165.717 24.8885 166.358 25.0092 166.947 25.2723C167.535 25.5355 168.052 25.9335 168.458 26.4342C168.931 25.9203 169.512 25.518 170.159 25.256C170.807 24.9942 171.504 24.8795 172.201 24.9199C172.824 24.8908 173.447 24.9912 174.029 25.215C174.612 25.4388 175.142 25.7809 175.587 26.2199C176.021 26.6778 176.357 27.219 176.575 27.8109C176.794 28.4026 176.891 29.0328 176.858 29.6628V32.4199C176.858 32.9628 177.101 33.2342 177.558 33.2342C177.779 33.2445 178.001 33.2205 178.215 33.1628C178.511 33.1628 178.668 33.277 178.687 33.5056L178.815 35.2913Z" fill="#53535C"/>
<path d="M11.2996 23.4066C12.3535 19.1704 14.7945 15.4086 18.2337 12.7202C21.673 10.0318 25.9129 8.57129 30.2782 8.57129C34.6434 8.57129 38.8833 10.0318 42.3226 12.7202C45.7619 15.4086 48.2027 19.1704 49.2567 23.4066H47.5424C44.6506 23.364 41.818 24.2283 39.4424 25.878C39.3053 25.9773 39.1622 26.068 39.0139 26.1494H38.8139C38.6656 26.068 38.5224 25.9773 38.3853 25.878C35.9887 24.2664 33.1662 23.4057 30.2782 23.4057C27.3902 23.4057 24.5676 24.2664 22.171 25.878C22.0339 25.9773 21.8907 26.068 21.7424 26.1494H21.5424C21.3942 26.068 21.251 25.9773 21.1139 25.878C18.7383 24.2283 15.9057 23.364 13.0139 23.4066H11.2996ZM44.4567 32.3637C45.3367 31.6784 46.4274 31.3199 47.5424 31.3494H49.8424V26.7637H47.5424C45.5784 26.74 43.6594 27.3513 42.071 28.5066C41.1772 29.1656 40.0959 29.5211 38.9853 29.5211C37.8747 29.5211 36.7934 29.1656 35.8996 28.5066C34.2709 27.3729 32.334 26.765 30.3496 26.765C28.3652 26.765 26.4283 27.3729 24.7996 28.5066C23.9057 29.1656 22.8244 29.5211 21.7139 29.5211C20.6033 29.5211 19.522 29.1656 18.6282 28.5066C17.0202 27.3364 15.0736 26.7244 13.0853 26.7637H10.7139V31.3494H13.0139C14.1289 31.3199 15.2196 31.6784 16.0996 32.3637C17.7253 33.4983 19.66 34.1066 21.6424 34.1066C23.6249 34.1066 25.5596 33.4983 27.1853 32.3637C28.0664 31.6806 29.1563 31.3223 30.271 31.3494C31.3864 31.3174 32.4779 31.6763 33.3567 32.3637C34.9854 33.4976 36.9223 34.1053 38.9067 34.1053C40.8912 34.1053 42.828 33.4976 44.4567 32.3637ZM44.4567 40.5637C45.3367 39.8784 46.4274 39.5199 47.5424 39.5494H49.8424V34.9637H47.5424C45.5784 34.94 43.6594 35.5513 42.071 36.7066C41.1772 37.3656 40.0959 37.7211 38.9853 37.7211C37.8747 37.7211 36.7934 37.3656 35.8996 36.7066C34.2709 35.5729 32.334 34.9651 30.3496 34.9651C28.3652 34.9651 26.4283 35.5729 24.7996 36.7066C23.9057 37.3656 22.8244 37.7211 21.7139 37.7211C20.6033 37.7211 19.522 37.3656 18.6282 36.7066C17.0202 35.5366 15.0736 34.9244 13.0853 34.9637H10.7139V39.5494H13.0139C14.1289 39.5199 15.2196 39.8784 16.0996 40.5637C17.7253 41.6983 19.66 42.3066 21.6424 42.3066C23.6249 42.3066 25.5596 41.6983 27.1853 40.5637C28.0664 39.8806 29.1563 39.5223 30.271 39.5494C31.3864 39.5174 32.4779 39.8763 33.3567 40.5637C34.9854 41.6976 36.9223 42.3053 38.9067 42.3053C40.8912 42.3053 42.828 41.6976 44.4567 40.5637Z" fill="#53535C"/>
</svg>
