<svg width="208" height="50" viewBox="0 0 208 50" fill="none" xmlns="http://www.w3.org/2000/svg">
<g clip-path="url(#clip0_1453_611)">
<path d="M62.8743 35.7589H77.4499V31.3686H68.0548V14.832H62.8743V35.7589Z" fill="#53535C"/>
<path d="M86.0882 32.8326C84.0101 32.8326 82.9272 31.0179 82.9272 28.296C82.9272 25.574 84.0101 23.7301 86.0882 23.7301C88.1662 23.7301 89.2784 25.574 89.2784 28.296C89.2784 31.0179 88.1662 32.8326 86.0882 32.8326ZM86.1174 36.2277C90.9467 36.2277 94.1077 32.8033 94.1077 28.296C94.1077 23.7886 90.9467 20.3643 86.1174 20.3643C81.3174 20.3643 78.0979 23.7886 78.0979 28.296C78.0979 32.8033 81.3174 36.2277 86.1174 36.2277Z" fill="#53535C"/>
<path d="M102.465 40.9389C104.69 40.9389 106.651 40.4413 107.968 39.2706C109.168 38.1876 109.958 36.5486 109.958 34.295V20.773H105.392V22.3828H105.334C104.456 21.1242 103.109 20.334 101.119 20.334C97.402 20.334 94.8264 23.4364 94.8264 27.8267C94.8264 32.4218 97.9581 34.9389 101.324 34.9389C103.139 34.9389 104.28 34.2072 105.158 33.212H105.275V34.7047C105.275 36.5193 104.426 37.573 102.407 37.573C100.826 37.573 100.036 36.8998 99.7728 36.1096H95.1484C95.6167 39.2413 98.3386 40.9389 102.465 40.9389ZM102.436 31.3974C100.651 31.3974 99.4801 29.934 99.4801 27.6803C99.4801 25.3974 100.651 23.934 102.436 23.934C104.426 23.934 105.48 25.6315 105.48 27.6511C105.48 29.7584 104.514 31.3974 102.436 31.3974Z" fill="#53535C"/>
<path d="M119.347 32.8326C117.269 32.8326 116.186 31.0179 116.186 28.296C116.186 25.574 117.269 23.7301 119.347 23.7301C121.425 23.7301 122.537 25.574 122.537 28.296C122.537 31.0179 121.425 32.8326 119.347 32.8326ZM119.376 36.2277C124.205 36.2277 127.366 32.8033 127.366 28.296C127.366 23.7886 124.205 20.3643 119.376 20.3643C114.576 20.3643 111.357 23.7886 111.357 28.296C111.357 32.8033 114.576 36.2277 119.376 36.2277Z" fill="#53535C"/>
<path d="M128.76 35.7589H133.53V20.7735H128.76V35.7589ZM128.76 18.6954H133.53V14.832H128.76V18.6954Z" fill="#53535C"/>
<path d="M135.6 40.7047H140.371V34.2072H140.429C141.366 35.4657 142.741 36.2267 144.673 36.2267C148.595 36.2267 151.2 33.1242 151.2 28.2657C151.2 23.7584 148.771 20.334 144.79 20.334C142.741 20.334 141.278 21.2413 140.254 22.5876H140.166V20.773H135.6V40.7047ZM143.444 32.5389C141.395 32.5389 140.224 30.8706 140.224 28.4413C140.224 26.012 141.278 24.1681 143.356 24.1681C145.405 24.1681 146.371 25.8657 146.371 28.4413C146.371 30.9876 145.258 32.5389 143.444 32.5389Z" fill="#53535C"/>
<path d="M158.967 36.2267C162.889 36.2267 165.787 34.5291 165.787 31.2511C165.787 27.4169 162.684 26.7437 160.05 26.3047C158.148 25.9535 156.45 25.8072 156.45 24.7535C156.45 23.8169 157.358 23.3779 158.528 23.3779C159.845 23.3779 160.753 23.7876 160.928 25.134H165.318C165.084 22.1779 162.801 20.334 158.557 20.334C155.016 20.334 152.089 21.973 152.089 25.134C152.089 28.6462 154.87 29.3486 157.475 29.7876C159.465 30.1389 161.279 30.2852 161.279 31.6315C161.279 32.5974 160.372 33.1242 158.938 33.1242C157.358 33.1242 156.362 32.3925 156.187 30.8998H151.679C151.826 34.2072 154.577 36.2267 158.967 36.2267Z" fill="#53535C"/>
<path d="M172.266 36.1978C174.344 36.1978 175.661 35.3783 176.744 33.9149H176.832V35.7588H181.398V20.7734H176.627V29.1442C176.627 30.9295 175.632 32.1588 173.993 32.1588C172.471 32.1588 171.739 31.2515 171.739 29.6125V20.7734H166.998V30.6076C166.998 33.9442 168.812 36.1978 172.266 36.1978Z" fill="#53535C"/>
<path d="M183.474 35.7584H188.245V27.3584C188.245 25.573 189.123 24.3145 190.615 24.3145C192.05 24.3145 192.723 25.2511 192.723 26.8608V35.7584H197.493V27.3584C197.493 25.573 198.342 24.3145 199.864 24.3145C201.298 24.3145 201.971 25.2511 201.971 26.8608V35.7584H206.742V26.012C206.742 22.6462 205.045 20.334 201.65 20.334C199.718 20.334 198.108 21.1535 196.937 22.9681H196.879C196.118 21.3584 194.625 20.334 192.664 20.334C190.498 20.334 189.064 21.3584 188.128 22.9096H188.04V20.773H183.474V35.7584Z" fill="#53535C"/>
<path fill-rule="evenodd" clip-rule="evenodd" d="M24.8582 49.174C38.3287 49.174 49.2485 38.2541 49.2485 24.7837C49.2485 11.3134 38.3287 0.393555 24.8582 0.393555C11.3879 0.393555 0.468018 11.3134 0.468018 24.7837C0.468018 38.2541 11.3879 49.174 24.8582 49.174ZM28.6229 19.2381C30.7019 17.159 30.7019 13.7881 28.6229 11.709C26.5437 9.62987 23.1729 9.62987 21.0937 11.709C19.0147 13.7881 19.0147 17.159 21.0937 19.2381L24.8582 23.0026L28.6229 19.2381ZM30.404 28.5484C32.4831 30.6275 35.854 30.6275 37.9331 28.5484C40.0122 26.4692 40.0122 23.0984 37.9331 21.0192C35.854 18.9402 32.4831 18.9402 30.404 21.0192L26.6395 24.7839L30.404 28.5484ZM28.6229 37.8586C30.7019 35.7795 30.7019 32.4086 28.6229 30.3295L24.8582 26.565L21.0937 30.3295C19.0147 32.4086 19.0147 35.7795 21.0937 37.8586C23.1729 39.9378 26.5437 39.9378 28.6229 37.8586ZM11.7834 28.5484C9.70436 26.4692 9.70436 23.0984 11.7834 21.0192C13.8626 18.9402 17.2335 18.9402 19.3126 21.0192L23.0771 24.7839L19.3126 28.5484C17.2335 30.6275 13.8626 30.6275 11.7834 28.5484Z" fill="#53535C"/>
</g>
<defs>
<clipPath id="clip0_1453_611">
<rect width="207.317" height="50" fill="white" transform="translate(0.341309)"/>
</clipPath>
</defs>
</svg>
