<svg width="76" height="50" viewBox="0 0 76 50" fill="none" xmlns="http://www.w3.org/2000/svg">
<path d="M48.5799 24.4904C48.5799 37.1704 38.3008 47.4496 25.6208 47.4496C12.9409 47.4496 2.66162 37.1704 2.66162 24.4904C2.66162 11.8104 12.9409 1.53125 25.6208 1.53125C38.3008 1.53125 48.5799 11.8104 48.5799 24.4904Z" fill="#53535C"/>
<path d="M73.3398 24.4904C73.3398 37.1704 63.1613 47.4496 50.6057 47.4496C38.0501 47.4496 27.8716 37.1704 27.8716 24.4904C27.8716 11.8104 38.0501 1.53125 50.6057 1.53125C63.1613 1.53125 73.3398 11.8104 73.3398 24.4904Z" fill="#53535C"/>
<path d="M38.1744 43.7158C44.4401 39.6161 48.5796 32.5364 48.5796 24.4897C48.5796 16.4431 44.4401 9.36326 38.1744 5.26367C31.9702 9.36326 27.8713 16.4431 27.8713 24.4897C27.8713 32.5364 31.9702 39.6161 38.1744 43.7158Z" fill="#53535C"/>
</svg>
