<svg width="50" height="50" viewBox="0 0 50 50" fill="none" xmlns="http://www.w3.org/2000/svg">
<g clip-path="url(#clip0_1453_601)">
<path fill-rule="evenodd" clip-rule="evenodd" d="M31.9446 14.6066C29.889 13.2331 27.4722 12.5 25 12.5V0C29.9445 0 34.778 1.46623 38.8893 4.21326C43.0005 6.96029 46.2048 10.8648 48.097 15.4329C49.9891 20.001 50.4842 25.0278 49.5196 29.8773C48.555 34.7267 46.174 39.1814 42.6776 42.6776C39.1814 46.174 34.7267 48.555 29.8773 49.5196C25.0278 50.4842 20.001 49.9891 15.4329 48.097C10.8648 46.2048 6.96029 43.0005 4.21326 38.8893C1.46623 34.778 0 29.9445 0 25H12.5C12.5 27.4722 13.2331 29.889 14.6066 31.9446C15.9801 34.0003 17.9324 35.6024 20.2165 36.5485C22.5005 37.4946 25.0139 37.7421 27.4386 37.2598C29.8634 36.7775 32.0906 35.587 33.8389 33.8389C35.587 32.0906 36.7775 29.8634 37.2598 27.4386C37.7421 25.0139 37.4946 22.5005 36.5485 20.2165C35.6024 17.9324 34.0003 15.9801 31.9446 14.6066Z" fill="#53535C"/>
<path fill-rule="evenodd" clip-rule="evenodd" d="M12.5 5.41407e-06C12.5 1.64153 12.1767 3.26698 11.5485 4.78354C10.9203 6.30012 9.99957 7.6781 8.83883 8.83884C7.67811 9.99958 6.30012 10.9203 4.78354 11.5485C3.26697 12.1767 1.64152 12.5 5.46388e-07 12.5L0 25C3.28304 25 6.53394 24.3534 9.56709 23.097C12.6002 21.8406 15.3562 19.9991 17.6776 17.6776C19.9991 15.3563 21.8406 12.6003 23.097 9.56709C24.3534 6.53394 25 3.28304 25 0L12.5 5.41407e-06Z" fill="#53535C"/>
</g>
<defs>
<clipPath id="clip0_1453_601">
<rect width="50" height="50" fill="white"/>
</clipPath>
</defs>
</svg>
