<svg width="132" height="50" viewBox="0 0 132 50" fill="none" xmlns="http://www.w3.org/2000/svg">
<g clip-path="url(#clip0_1453_584)">
<path d="M60.5452 44.0468H63.9632V31.1539H60.5452V44.0468ZM60.5452 29.1433H63.9632V26.0771H60.5452V29.1433Z" fill="#53535C"/>
<path d="M66.165 48.2697H69.583V42.5899H69.6334C70.3622 43.6956 71.5434 44.4245 73.3529 44.4245C76.6704 44.4245 78.9323 41.7856 78.9323 37.6136C78.9323 33.5924 76.7458 30.8027 73.3278 30.8027C71.5685 30.8027 70.3622 31.6321 69.5328 32.763H69.4574V31.1546H66.165V48.2697ZM72.6242 41.5845C70.5884 41.5845 69.5077 40.0515 69.5077 37.7141C69.5077 35.402 70.3622 33.5672 72.4984 33.5672C74.6095 33.5672 75.464 35.2762 75.464 37.7141C75.464 40.152 74.3583 41.5845 72.6242 41.5845Z" fill="#53535C"/>
<path d="M85.7511 44.4245C88.968 44.4245 91.1796 42.8662 91.1796 40.2776C91.1796 37.2617 88.7921 36.6586 86.6307 36.2062C84.796 35.8292 83.087 35.7286 83.087 34.6229C83.087 33.693 83.9666 33.1902 85.2987 33.1902C86.7564 33.1902 87.636 33.693 87.7867 35.0752H90.8781C90.6267 32.4866 88.7419 30.8027 85.349 30.8027C82.4085 30.8027 80.0962 32.1347 80.0962 34.9244C80.0962 37.7392 82.3582 38.3676 84.6704 38.82C86.4296 39.1717 88.0632 39.2975 88.0632 40.529C88.0632 41.4337 87.2087 42.0117 85.7007 42.0117C84.1677 42.0117 83.1121 41.3584 82.886 39.8755H79.7192C79.9204 42.615 82.0064 44.4245 85.7511 44.4245Z" fill="#53535C"/>
<path d="M104.156 44.0472V31.1543H100.738V38.5934C100.738 40.3024 99.7577 41.5088 98.1492 41.5088C96.6916 41.5088 96.013 40.6794 96.013 39.1714V31.1543H92.6201V39.7495C92.6201 42.5643 94.2286 44.399 97.0937 44.399C98.9032 44.399 99.9085 43.7204 100.788 42.5392H100.864V44.0472H104.156Z" fill="#53535C"/>
<path d="M106.367 44.0475H109.785V36.558C109.785 34.849 110.715 33.7432 112.097 33.7432C113.354 33.7432 114.083 34.4971 114.083 35.9549V44.0475H117.501V36.558C117.501 34.849 118.381 33.7432 119.813 33.7432C121.07 33.7432 121.799 34.4971 121.799 35.9549V44.0475H125.217V35.3769C125.217 32.562 123.683 30.8027 120.969 30.8027C119.336 30.8027 117.978 31.6572 117.099 33.0646H117.049C116.42 31.7075 115.113 30.8027 113.48 30.8027C111.695 30.8027 110.439 31.7075 109.735 32.8887H109.66V31.1546H106.367V44.0475Z" fill="#53535C"/>
<path d="M60.5957 21.9657H64.0137V3.99609H60.5957V21.9657Z" fill="#53535C"/>
<path d="M72.3703 22.3424C76.3664 22.3424 79.1058 19.3768 79.1058 15.5316C79.1058 11.6863 76.3664 8.7207 72.3703 8.7207C68.3743 8.7207 65.6348 11.6863 65.6348 15.5316C65.6348 19.3768 68.3743 22.3424 72.3703 22.3424ZM72.3703 19.7287C70.2591 19.7287 69.1031 18.0448 69.1031 15.5316C69.1031 13.0183 70.2591 11.3093 72.3703 11.3093C74.4563 11.3093 75.6375 13.0183 75.6375 15.5316C75.6375 18.0448 74.4563 19.7287 72.3703 19.7287Z" fill="#53535C"/>
<path d="M86.3749 26.3637C88.285 26.3637 89.9438 25.9113 91.0244 24.9059C91.9794 24.0263 92.5575 22.7948 92.5575 20.9853V9.07255H89.2651V10.4297H89.2149C88.4358 9.349 87.2545 8.7207 85.646 8.7207C82.3789 8.7207 80.0667 11.1837 80.0667 15.0289C80.0667 18.9244 82.8815 21.1863 85.7467 21.1863C87.3803 21.1863 88.3604 20.5329 89.1144 19.6784H89.1898V21.0858C89.1898 22.8451 88.2599 23.7749 86.3247 23.7749C84.7413 23.7749 84.0125 23.1467 83.736 22.3424H80.3432C80.695 24.8557 82.8564 26.3637 86.3749 26.3637ZM86.3247 18.4469C84.5654 18.4469 83.4093 17.1652 83.4093 14.9787C83.4093 12.8173 84.5654 11.4601 86.2995 11.4601C88.3604 11.4601 89.3656 13.0686 89.3656 14.9536C89.3656 16.8636 88.486 18.4469 86.3247 18.4469Z" fill="#53535C"/>
<path d="M100.865 22.3424C104.861 22.3424 107.601 19.3768 107.601 15.5316C107.601 11.6863 104.861 8.7207 100.865 8.7207C96.8694 8.7207 94.1299 11.6863 94.1299 15.5316C94.1299 19.3768 96.8694 22.3424 100.865 22.3424ZM100.865 19.7287C98.7543 19.7287 97.5981 18.0448 97.5981 15.5316C97.5981 13.0183 98.7543 11.3093 100.865 11.3093C102.951 11.3093 104.133 13.0183 104.133 15.5316C104.133 18.0448 102.951 19.7287 100.865 19.7287Z" fill="#53535C"/>
<path d="M110.597 17.0391H125.375V14.0986H110.597V17.0391Z" fill="#53535C"/>
<path d="M126.459 28.9642C126.459 28.3859 126.928 27.917 127.506 27.917H129.6C130.179 27.917 130.648 28.3859 130.648 28.9642C130.648 29.5425 130.179 30.0114 129.6 30.0114H127.506C126.928 30.0114 126.459 29.5425 126.459 28.9642Z" fill="#53535C"/>
<path fill-rule="evenodd" clip-rule="evenodd" d="M26.0268 0C39.834 0 51.0268 11.1929 51.0268 25C51.0268 38.8071 39.834 50 26.0268 50C12.2197 50 1.02686 38.8071 1.02686 25C1.02686 11.1929 12.2197 0 26.0268 0ZM25.1232 1.87074C22.2712 2.27211 19.5555 4.56385 17.4473 8.39675C16.8358 9.50854 16.2841 10.7368 15.8032 12.0631C18.6697 11.3427 21.8186 10.918 25.1232 10.8523V1.87074ZM13.6903 12.6635C14.2882 10.787 15.0197 9.0605 15.8638 7.52581C16.9088 5.62574 18.1491 3.98494 19.5465 2.72471C11.9478 4.93154 5.95839 10.921 3.75157 18.5196C5.01179 17.1222 6.6526 15.882 8.55267 14.837C10.0874 13.9929 11.8138 13.2614 13.6903 12.6635ZM13.0898 14.7764C12.3696 17.6429 11.9449 20.7917 11.8792 24.0964H2.89759C3.29897 21.2442 5.59071 18.5285 9.42361 16.4205C10.5354 15.809 11.7637 15.2572 13.0898 14.7764ZM13.6868 24.0964C13.7615 20.49 14.2806 17.1042 15.1396 14.1128C18.1311 13.2537 21.517 12.7345 25.1232 12.6599V16.5635C23.7778 20.0077 21.0338 22.7515 17.5895 24.0964H13.6868ZM11.8792 25.9036H2.89759C3.29897 28.7558 5.59071 31.4714 9.42361 33.5795C10.5354 34.191 11.7637 34.7427 13.0898 35.2236C12.3696 32.3571 11.9449 29.2083 11.8792 25.9036ZM15.1396 35.8873C14.2806 32.8958 13.7615 29.51 13.6868 25.9036H17.5895C21.0338 27.2485 23.778 29.9923 25.1232 33.4365V37.3401C21.517 37.2655 18.1311 36.7463 15.1396 35.8873ZM13.6903 37.3365C11.8138 36.7386 10.0874 36.0071 8.55267 35.163C6.6526 34.118 5.01179 32.8778 3.75157 31.4804C5.95839 39.079 11.9478 45.0685 19.5465 47.2753C18.1491 46.015 16.9088 44.3743 15.8638 42.4741C15.0197 40.9395 14.2882 39.213 13.6903 37.3365ZM25.1232 48.1292C22.2712 47.7279 19.5555 45.4361 17.4473 41.6032C16.8358 40.4915 16.2841 39.2631 15.8032 37.937C18.6697 38.6572 21.8186 39.082 25.1232 39.1476V48.1292ZM32.5072 47.2753C33.9046 46.015 35.1448 44.3743 36.19 42.4741C37.034 40.9395 37.7655 39.213 38.3633 37.3365C40.2398 36.7386 41.9663 36.0071 43.5011 35.163C45.4011 34.118 47.042 32.8778 48.3021 31.4804C46.0953 39.079 40.1058 45.0685 32.5072 47.2753ZM36.2505 37.937C35.7696 39.2631 35.2178 40.4915 34.6063 41.6032C32.4983 45.4361 29.7826 47.7279 26.9305 48.1292V39.1476C30.2351 39.082 33.384 38.6572 36.2505 37.937ZM38.9638 35.2236C40.29 34.7427 41.5183 34.191 42.6301 33.5795C46.463 31.4714 48.7547 28.7558 49.1561 25.9036H40.1745C40.1088 29.2083 39.6841 32.3571 38.9638 35.2236ZM38.367 25.9036C38.2923 29.51 37.7731 32.8958 36.9141 35.8873C33.9226 36.7463 30.5368 37.2655 26.9305 37.3401V33.4394C28.2753 29.9939 31.02 27.2489 34.4653 25.9036H38.367ZM40.1745 24.0964H49.1561C48.7547 21.2442 46.463 18.5285 42.6301 16.4205C41.5183 15.809 40.29 15.2572 38.9638 14.7764C39.6841 17.6429 40.1088 20.7917 40.1745 24.0964ZM36.9141 14.1128C37.7731 17.1042 38.2923 20.49 38.367 24.0964H34.4653C31.02 22.7511 28.2753 20.0061 26.9305 16.5606V12.6599C30.5368 12.7345 33.9226 13.2537 36.9141 14.1128ZM38.3633 12.6635C40.2398 13.2614 41.9663 13.9929 43.5011 14.837C45.4011 15.882 47.042 17.1222 48.3021 18.5196C46.0953 10.921 40.1058 4.93154 32.5072 2.72471C33.9046 3.98494 35.1448 5.62574 36.19 7.52581C37.034 9.0605 37.7655 10.787 38.3633 12.6635ZM26.9305 1.87074C29.7826 2.27211 32.4983 4.56385 34.6063 8.39675C35.2178 9.50855 35.7696 10.7368 36.2505 12.0631C33.384 11.3427 30.2351 10.918 26.9305 10.8523V1.87074Z" fill="#53535C"/>
</g>
<defs>
<clipPath id="clip0_1453_584">
<rect width="131.25" height="50" fill="white" transform="translate(0.375)"/>
</clipPath>
</defs>
</svg>
