<svg width="176" height="50" viewBox="0 0 176 50" fill="none" xmlns="http://www.w3.org/2000/svg">
<path d="M58.9533 31.8175V12.3721H55.7646V31.8175H58.9533Z" fill="#53535C"/>
<path d="M60.9043 25.3374C60.9043 29.3102 63.5702 32.1329 67.6213 32.1329C71.6725 32.1329 74.3384 29.3102 74.3384 25.3374C74.3384 21.3647 71.6725 18.542 67.6213 18.542C63.5702 18.542 60.9043 21.3647 60.9043 25.3374ZM64.1191 25.3374C64.1191 23.0113 65.5043 21.3909 67.6213 21.3909C69.7384 21.3909 71.1236 23.0113 71.1236 25.3374C71.1236 27.6374 69.7384 29.284 67.6213 29.284C65.5043 29.284 64.1191 27.6374 64.1191 25.3374Z" fill="#53535C"/>
<path d="M75.4116 25.0746C75.4116 28.8383 77.8423 31.5565 81.4753 31.5565C83.3571 31.5565 84.9775 30.7985 85.7878 29.544V31.7394C85.7878 33.8565 84.4548 35.2678 82.2332 35.2678C80.2468 35.2678 78.8878 34.3008 78.7048 32.6019H75.49C75.9082 35.9735 78.4957 38.169 82.0503 38.169C86.2321 38.169 88.898 35.4246 88.898 31.1644V18.9065H86.0753L85.8923 20.6576C85.1082 19.2985 83.4878 18.4883 81.5798 18.4883C77.8946 18.4883 75.4116 21.2849 75.4116 25.0746ZM78.6525 24.9962C78.6525 22.8531 80.0116 21.2849 82.0241 21.2849C84.2196 21.2849 85.6832 22.8792 85.6832 24.9962C85.6832 27.1394 84.2196 28.786 82.0241 28.786C80.0378 28.786 78.6525 27.1656 78.6525 24.9962Z" fill="#53535C"/>
<path d="M90.4756 25.3374C90.4756 29.3102 93.1415 32.1329 97.1926 32.1329C101.244 32.1329 103.91 29.3102 103.91 25.3374C103.91 21.3647 101.244 18.542 97.1926 18.542C93.1415 18.542 90.4756 21.3647 90.4756 25.3374ZM93.6904 25.3374C93.6904 23.0113 95.0756 21.3909 97.1926 21.3909C99.3097 21.3909 100.695 23.0113 100.695 25.3374C100.695 27.6374 99.3097 29.284 97.1926 29.284C95.0756 29.284 93.6904 27.6374 93.6904 25.3374Z" fill="#53535C"/>
<path d="M107.36 16.2683C108.406 16.2683 109.268 15.4319 109.268 14.3603C109.268 13.3149 108.406 12.4785 107.36 12.4785C106.289 12.4785 105.479 13.3149 105.479 14.3603C105.479 15.4319 106.289 16.2683 107.36 16.2683ZM105.766 31.8194H108.955V18.9081H105.766V31.8194Z" fill="#53535C"/>
<path d="M111.749 37.8033H114.859V30.0408C115.669 31.3737 117.42 32.1578 119.354 32.1578C123.17 32.1578 125.444 29.2306 125.392 25.2056C125.314 21.1544 122.987 18.5146 119.328 18.5146C117.368 18.5146 115.591 19.3772 114.807 20.8669L114.624 18.9067H111.749V37.8033ZM114.99 25.3624C114.99 23.0362 116.401 21.4158 118.623 21.4158C120.844 21.4158 122.177 23.0624 122.177 25.3624C122.177 27.6624 120.844 29.2828 118.623 29.2828C116.401 29.2828 114.99 27.6885 114.99 25.3624Z" fill="#53535C"/>
<path d="M126.201 27.9499C126.306 30.5112 128.292 32.1578 131.376 32.1578C134.408 32.1578 136.473 30.5374 136.473 28.0283C136.473 26.1726 135.323 24.9181 133.206 24.3953L130.932 23.8465C129.965 23.5851 129.311 23.2453 129.311 22.409C129.311 21.5203 130.017 20.8931 131.167 20.8931C132.369 20.8931 133.153 21.5726 133.153 22.6965H136.055C135.95 20.1351 134.042 18.5146 131.245 18.5146C128.475 18.5146 126.41 20.1351 126.41 22.5919C126.41 24.2646 127.377 25.6499 129.86 26.3033L132.108 26.8783C132.944 27.1135 133.467 27.5056 133.467 28.2374C133.467 29.2567 132.5 29.7271 131.324 29.7271C129.913 29.7271 129.102 29.0737 129.102 27.9499H126.201Z" fill="#53535C"/>
<path d="M143.087 32.1574C144.838 32.1574 146.511 31.3472 147.269 30.1449L147.478 31.8176H150.458V18.9062H147.269V25.6756C147.269 28.0017 146.38 29.3085 144.289 29.3085C142.669 29.3085 141.545 28.5244 141.545 25.8585V18.9062H138.356V26.9824C138.356 30.0665 140.029 32.1574 143.087 32.1574Z" fill="#53535C"/>
<path d="M156.46 31.8181V24.3953C156.46 22.3044 157.689 21.3112 159.204 21.3112C160.72 21.3112 161.714 22.2783 161.714 24.1078V31.8181H164.824V24.4215C164.824 22.3044 166.026 21.3112 167.542 21.3112C169.084 21.3112 170.077 22.2783 170.077 24.1078V31.8181H173.161V23.376C173.161 20.3965 171.515 18.5146 168.378 18.5146C166.418 18.5146 164.876 19.4556 164.249 20.9715C163.543 19.4556 162.132 18.5146 159.989 18.5146C158.473 18.5146 157.114 19.2203 156.356 20.3703L156.199 18.9067H153.271V31.8181H156.46Z" fill="#53535C"/>
<path d="M148.816 43.3562C149.291 43.3562 149.704 42.9562 149.704 42.4812C149.704 41.9937 149.291 41.5938 148.816 41.5938C148.329 41.5938 147.916 41.9937 147.916 42.4812C147.916 42.9562 148.329 43.3562 148.816 43.3562Z" fill="#53535C"/>
<path d="M150.62 40.1311C150.62 42.0436 151.795 43.3311 153.508 43.3311C154.983 43.3311 156.108 42.4436 156.345 41.1186H155.22C155.008 41.8561 154.358 42.2936 153.583 42.2936C152.483 42.2936 151.783 41.4436 151.783 40.1186C151.783 38.7686 152.52 37.9436 153.608 37.9436C154.358 37.9436 155.008 38.3436 155.208 39.1311H156.333C156.133 37.7936 155.083 36.8936 153.62 36.8936C151.845 36.8936 150.62 38.2061 150.62 40.1311Z" fill="#53535C"/>
<path d="M156.789 40.1187C156.789 41.9562 158.039 43.3312 159.914 43.3312C161.789 43.3312 163.039 41.9562 163.039 40.1187C163.039 38.2812 161.789 36.9062 159.914 36.9062C158.039 36.9062 156.789 38.2812 156.789 40.1187ZM157.976 40.1187C157.976 38.8687 158.739 37.9562 159.914 37.9562C161.089 37.9562 161.851 38.8687 161.851 40.1187C161.851 41.3687 161.089 42.2812 159.914 42.2812C158.739 42.2812 157.976 41.3687 157.976 40.1187Z" fill="#53535C"/>
<path d="M165.217 43.1938V39.5187C165.217 38.5562 165.817 37.9313 166.692 37.9313C167.529 37.9313 168.054 38.4688 168.054 39.4313V43.1938H169.204V39.5312C169.204 38.5562 169.792 37.9313 170.679 37.9313C171.504 37.9313 172.029 38.4688 172.029 39.4313V43.1938H173.167V39.1812C173.167 37.7687 172.342 36.9062 170.942 36.9062C169.992 36.9062 169.254 37.3687 168.954 38.1187C168.642 37.3687 167.954 36.9062 166.954 36.9062C166.192 36.9062 165.517 37.2562 165.179 37.8562L165.092 37.0812H164.042V43.1938H165.217Z" fill="#53535C"/>
<path fill-rule="evenodd" clip-rule="evenodd" d="M2.77246 25.4954L2.77465 25.2676L2.77918 25.0398L2.78604 24.812L2.79523 24.5841L2.80678 24.3563L2.82065 24.1284L2.83688 23.9007L2.85544 23.673L2.87635 23.4454L2.8996 23.2178L2.92519 22.9905L2.95311 22.7632L2.98338 22.5362L3.01599 22.3093L3.05094 22.0828L3.08822 21.8565L3.12785 21.6304L3.16979 21.4047L3.21407 21.1792L3.26069 20.9541L3.30963 20.7293L3.36088 20.505L3.41447 20.2812L3.47036 20.0576L3.52857 19.8347L3.58909 19.6121L3.65192 19.39L3.71704 19.1686L3.78446 18.9476L3.85417 18.7273L3.92617 18.5075L4.00045 18.2883L4.07701 18.0698L4.15582 17.852L4.23692 17.6348L4.32026 17.4183L4.40586 17.2026L4.4937 16.9876L4.58378 16.7736L4.67609 16.5601L4.77062 16.3475L4.86737 16.1358L4.96632 15.925L5.06748 15.715L5.17084 15.5059L5.27637 15.2979L5.38407 15.0907L5.49395 14.8845L5.60597 14.6793L5.72014 14.4751L5.83646 14.272L5.95489 14.0699L6.07545 13.8689L6.19811 13.669L6.32287 13.4703L6.44971 13.2726L6.57863 13.0763L6.70962 12.8809L6.84265 12.687L6.97773 12.4941L7.11484 12.3025L7.25395 12.1123L7.39507 11.9232L7.53819 11.7356L7.68329 11.5492L7.83035 11.3642L7.97936 11.1805L8.13031 10.9983L8.28319 10.8174L8.43798 10.638L8.59468 10.4601L8.75325 10.2836L8.91369 10.1086L9.07599 9.93505L9.24013 9.76307L9.4061 9.59264L9.57387 9.42377L9.74344 9.25647L9.91479 9.09078L10.0879 8.9267L10.2628 8.76427L10.4394 8.60347L10.6177 8.44436L10.7977 8.28693L10.9794 8.13119L11.1627 7.97719L11.3477 7.82493L11.5344 7.67442L11.7226 7.52568L11.9125 7.37872L12.1038 7.23359L12.2969 7.09026L12.4914 6.94878L12.6875 6.80915L12.885 6.67139L13.0841 6.53552L13.2845 6.40153L13.4864 6.26947L13.6898 6.13934L13.8947 6.01115L14.1009 5.88493L14.3085 5.76066L14.5173 5.6384L14.7276 5.51814L14.9392 5.39989L15.152 5.28368L15.3661 5.16949L15.5814 5.05738L15.798 4.94732L16.0159 4.83936L16.2348 4.73348L16.4551 4.62971L16.6763 4.52806L16.8988 4.42855L17.1223 4.33118L17.347 4.23596L17.5727 4.14291L17.7994 4.05204L18.0271 3.96335L18.2559 3.87687L18.4855 3.79259L18.7162 3.71054L18.9478 3.63071L19.1803 3.55312L19.4136 3.47779L19.6478 3.40471L19.8829 3.3339L20.1188 3.26538L20.3554 3.19914L20.5929 3.13519L20.8311 3.07354L21.07 3.01421L21.3095 2.95721L21.5498 2.90252L21.7908 2.85018L22.0322 2.80016L22.2744 2.75251L22.5171 2.70721L22.7604 2.66427L23.0043 2.6237L23.2486 2.58551L23.4934 2.54969L23.7386 2.51627L23.9843 2.48523L24.2304 2.4566L24.4769 2.43035L24.7237 2.40653L24.9709 2.38511L25.2184 2.3661L25.4661 2.34952L26.7984 2.27344L26.8744 8.69238L26.9179 8.69188L27.1019 8.69162L27.2859 8.69317L27.4698 8.69652L27.6541 8.70169L27.8381 8.70867L28.0223 8.71744L28.2066 8.72804L28.3908 8.74046L28.5748 8.75468L28.7591 8.77072L28.943 8.78859L29.127 8.80827L29.3108 8.82976L29.4945 8.85306L29.678 8.87819L29.8614 8.90512L30.0446 8.93388L30.2277 8.96445L30.4104 8.99682L30.593 9.03102L30.7753 9.06702L30.9572 9.10484L31.1391 9.14445L31.3204 9.18587L31.5014 9.22909L31.6822 9.27411L31.8626 9.32094L32.0425 9.36955L32.222 9.41996L32.4012 9.47215L32.5798 9.52613L32.758 9.58189L32.9358 9.63944L33.113 9.69876L33.2897 9.75984L33.4659 9.82269L33.6416 9.88729L33.8166 9.95367L33.991 10.0218L34.1648 10.0917L34.338 10.1633L34.5105 10.2366L34.6825 10.3117L34.8537 10.3885L35.0242 10.467L35.1939 10.5472L35.363 10.6292L35.5313 10.7128L35.6988 10.7982L35.8655 10.8852L36.0314 10.9739L36.1966 11.0643L36.3608 11.1563L36.5242 11.25L36.6867 11.3454L36.8483 11.4424L37.0089 11.5411L37.1687 11.6413L37.3275 11.7432L37.4853 11.8466L37.6421 11.9517L37.798 12.0584L37.9528 12.1666L38.1067 12.2765L38.2594 12.3879L38.411 12.5008L38.5617 12.6154L38.7111 12.7314L38.8595 12.849L39.0067 12.968L39.1528 13.0886L39.2977 13.2107L39.4414 13.3342L39.584 13.4592L39.7254 13.5857L39.8654 13.7137L40.0043 13.8431L40.1419 13.9739L40.2783 14.1061L40.4133 14.2397L40.547 14.3747L40.6794 14.5112L40.8105 14.6489L40.9402 14.788L41.0686 14.9284L41.1955 15.0703L41.3211 15.2133L41.4453 15.3578L41.568 15.5034L41.6894 15.6504L41.8093 15.7987L41.9277 15.9481L42.0446 16.0988L42.1601 16.2507L42.274 16.4039L42.3864 16.5582L42.4973 16.7138L42.6067 16.8705L42.7145 17.0282L42.8208 17.1872L42.9254 17.3473L43.0285 17.5086L43.1298 17.6708L43.2297 17.8341L43.3279 17.9986L43.4245 18.164L43.5194 18.3305L43.6127 18.498L43.7043 18.6665L43.7942 18.8359L43.8823 19.0064L43.9688 19.1778L44.0536 19.35L44.1367 19.5233L44.218 19.6974L44.2976 19.8724L44.3754 20.0483L44.4514 20.225L44.5256 20.4026L44.5981 20.5809L44.6688 20.7601L44.7377 20.94L44.8047 21.1208L44.87 21.3022L44.9334 21.4845L44.995 21.6673L45.0547 21.8509L45.1126 22.0351L45.1686 22.22L45.2227 22.4056L45.275 22.5917L45.3253 22.7786L45.3738 22.9659L45.4203 23.1538L45.4651 23.3423L45.5078 23.5313L45.5486 23.7208L45.5876 23.9107L45.6245 24.1013L45.6595 24.2922L45.6927 24.4836L45.7238 24.6753L45.753 24.8674L45.7803 25.06L45.8055 25.2529L45.8288 25.4462L45.8502 25.6397L45.8695 25.8336L45.8869 26.0276L45.9023 26.2221L45.9158 26.4167L45.9271 26.6116L45.9366 26.8066L45.9441 27.002L45.9494 27.1973L45.9529 27.3929L45.9543 27.5886L45.9537 27.7843L45.9511 27.9803L45.9464 28.1763L45.9398 28.3722L45.9312 28.5682L45.9206 28.7642L45.9079 28.9603L45.8933 29.1563L45.8765 29.3522L45.8578 29.5481L45.8371 29.7439L45.8143 29.9395L45.7895 30.135L45.7628 30.3304L45.7339 30.5256L45.7031 30.7206L45.6703 30.9154L45.6354 31.1099L45.5986 31.3042L45.5597 31.4983L45.5188 31.6921L45.4759 31.8855L45.431 32.0787L45.3842 32.2714L45.3352 32.4638L45.2843 32.6557L45.2314 32.8473L45.1766 33.0384L45.1197 33.2291L45.0609 33.4195L45 33.6091L44.9372 33.7984L44.8725 33.9871L44.8056 34.1753L44.737 34.3629L44.6663 34.5498L44.5937 34.7362L44.5192 34.922L44.4427 35.1071L44.3643 35.2915L44.2839 35.4754L44.2017 35.6583L44.1175 35.8407L44.0313 36.0223L43.9434 36.2031L43.8534 36.3832L43.7617 36.5624L43.6679 36.7409L43.5725 36.9184L43.475 37.0953L43.3758 37.2711L43.2746 37.4461L43.1717 37.6201L43.0669 37.7932L42.9603 37.9655L42.8518 38.1366L42.7416 38.3069L42.6296 38.4761L42.5158 38.6442L42.4002 38.8114L42.2828 38.9775L42.1637 39.1425L42.0428 39.3065L41.9202 39.4693L41.7959 39.6311L41.6698 39.7915L41.5421 39.9509L41.4127 40.1091L41.2816 40.2661L41.1487 40.4218L41.0143 40.5764L40.8781 40.7297L40.7404 40.8817L40.6011 41.0325L40.4602 41.182L40.3176 41.3301L40.1735 41.4769L40.0277 41.6223L39.8804 41.7664L39.7317 41.9091L39.5813 42.0505L39.4295 42.1904L39.2761 42.3289L39.1212 42.4658L38.965 42.6014L38.8071 42.7356L38.6479 42.8682L38.4872 42.9992L38.3252 43.1289L38.1617 43.257L37.9968 43.3834L37.8305 43.5083L37.6629 43.6317L37.4941 43.7536L37.3237 43.8737L37.1521 43.9923L36.9793 44.1092L36.8052 44.2245L36.6297 44.3381L36.4531 44.4501L36.2753 44.5604L36.0962 44.669L35.9159 44.7758L35.7344 44.8811L35.5519 44.9845L35.368 45.0861L35.1833 45.1861L34.9972 45.2841L34.8102 45.3805L34.622 45.4751L34.4328 45.5679L34.2426 45.6588L34.0513 45.748L33.8591 45.8353L33.6659 45.9207L33.4717 46.0042L33.2766 46.0859L33.0805 46.1658L32.8836 46.2438L32.6858 46.3198L32.487 46.394L32.2875 46.4662L32.087 46.5365L31.8859 46.6048L31.6839 46.6713L31.4811 46.7357L31.2776 46.7982L31.0734 46.8588L30.8685 46.9173L30.6628 46.9739L30.4566 47.0286L30.2495 47.0811L30.042 47.1316L29.8338 47.1803L29.625 47.2267L29.4156 47.2713L29.2058 47.3138L28.9953 47.3542L28.7844 47.3926L28.573 47.4289L28.3611 47.4632L28.1488 47.4955L27.936 47.5256L27.7229 47.5537L27.5094 47.5797L27.2954 47.6036L27.0812 47.6254L26.8667 47.6451L26.6519 47.6628L26.4368 47.6783L26.2214 47.6917L26.0058 47.7031L25.79 47.7123L25.5741 47.7194L25.3578 47.7243L25.1416 47.7272L24.9251 47.728L24.7086 47.7266L24.492 47.7231L24.2753 47.7175L24.0586 47.7097L23.8419 47.6998L23.6252 47.6879L23.4086 47.6737L23.1919 47.6574L22.9754 47.639L22.7589 47.6184L22.5426 47.5958L22.3264 47.5711L22.1104 47.5441L21.8945 47.515L21.6789 47.4838L21.4635 47.4505L21.2484 47.415L21.0335 47.3775L20.8188 47.3378L20.6046 47.2959L20.3906 47.2521L20.1771 47.2059L19.9638 47.1578L19.7511 47.1075L19.5387 47.0551L19.3268 47.0006L19.1153 46.944L18.9044 46.8854L18.6939 46.8246L18.4839 46.7617L18.2746 46.6967L18.0659 46.6297L17.8577 46.5606L17.6501 46.4893L17.4431 46.4161L17.2369 46.3408L17.0313 46.2634L16.8264 46.184L16.6223 46.1025L16.4189 46.019L16.2163 45.9334L16.0145 45.8459L15.8135 45.7564L15.6133 45.6648L15.4139 45.5712L15.2155 45.4756L15.018 45.378L14.8213 45.2784L14.6256 45.177L14.431 45.0734L14.2371 44.9681L14.0444 44.8607L13.8527 44.7514L13.662 44.6401L13.4723 44.527L13.2838 44.412L13.0963 44.2949L12.91 44.1762L12.7248 44.0554L12.5408 43.9329L12.3579 43.8083L12.1763 43.6821L11.9959 43.554L11.8167 43.424L11.6387 43.2923L11.4621 43.1587L11.2867 43.0233L11.1127 42.8863L10.94 42.7473L10.7686 42.6067L10.5986 42.4644L10.43 42.3203L10.2628 42.1745L10.0971 42.0269L9.93276 41.8776L9.7699 41.7269L9.60852 41.5742L9.44864 41.4201L9.29028 41.2642L9.13344 41.1068L8.97815 40.9479L8.82444 40.7872L8.6723 40.625L8.52177 40.4613L8.37286 40.2959L8.22557 40.1291L8.07994 39.9608L7.93597 39.7909L7.79369 39.6197L7.65311 39.4468L7.51423 39.2726L7.3771 39.097L7.2417 38.9199L7.10806 38.7414L6.9762 38.5615L6.84613 38.3803L6.71786 38.1976L6.59142 38.0138L6.4668 37.8286L6.34404 37.642L6.22314 37.4542L6.10411 37.2651L5.98697 37.0748L5.87174 36.8833L5.75843 36.6905L5.64705 36.4966L5.53761 36.3015L5.43012 36.1053L5.32461 35.9078L5.22106 35.7092L5.11953 35.5097L5.01998 35.309L4.92247 35.1073L4.82698 34.9045L4.73353 34.7007L4.64213 34.4958L4.55279 34.2901L4.46553 34.0833L4.38036 33.8757L4.29727 33.6671L4.21629 33.4575L4.13744 33.2472L4.0607 33.0359L3.9861 32.8239L3.91363 32.6111L3.84332 32.3973L3.77519 32.1829L3.70921 31.9676L3.64543 31.7517L3.58382 31.535L3.52442 31.3176L3.46721 31.0997L3.41222 30.8811L3.35945 30.6617L3.30892 30.4418L3.26061 30.2213L3.21454 30.0003L3.17072 29.7787L3.12915 29.5566L3.08985 29.334L3.05281 29.1109L3.01804 28.8874L2.98555 28.6634L2.95535 28.439L2.92744 28.2142L2.90181 27.9891L2.87848 27.7637L2.85746 27.538L2.83875 27.3118L2.82234 27.0855L2.80825 26.8589L2.79647 26.6321L2.78702 26.405L2.77988 26.1779L2.77507 25.9505L2.77261 25.723L2.77246 25.4954ZM24.793 8.82684L24.7412 4.45161L24.692 4.45636L24.4661 4.4804L24.2408 4.50663L24.0155 4.53509L23.7912 4.56565L23.5671 4.59845L23.3433 4.63344L23.1201 4.67057L22.8971 4.70993L22.6753 4.75132L22.4531 4.79504L22.2326 4.84072L22.0117 4.88871L21.7919 4.93873L21.5723 4.99098L21.3538 5.04523L21.1359 5.10167L20.9185 5.1602L20.7018 5.22085L20.4861 5.28353L20.2708 5.34837L20.0566 5.41522L19.8429 5.4842L19.6304 5.55509L19.4183 5.62821L19.2072 5.70329L18.9972 5.78036L18.7878 5.85953L18.5795 5.94063L18.3723 6.02369L18.1658 6.10888L17.9602 6.19601L17.7556 6.28512L17.5522 6.37611L17.3498 6.46907L17.1486 6.56392L16.948 6.66085L16.7489 6.75955L16.5509 6.86018L16.3539 6.9627L16.1581 7.06712L15.9637 7.17332L15.7701 7.2815L15.5777 7.39154L15.387 7.50315L15.1969 7.61695L15.0086 7.73226L14.8216 7.84936L14.6354 7.96838L14.4508 8.08914L14.2675 8.21167L14.0859 8.33563L13.905 8.46179L13.7259 8.5893L13.5481 8.71857L13.3717 8.84962L13.1968 8.98222L13.0235 9.11642L12.8512 9.2525L12.6809 9.38987L12.5118 9.52905L12.3443 9.66974L12.1783 9.81207L12.0139 9.95577L11.8508 10.1013L11.6896 10.2481L11.5298 10.3966L11.3718 10.5463L11.2152 10.6977L11.0604 10.8504L10.9072 11.0047L10.7554 11.1605L10.6056 11.3174L10.4576 11.4757L10.3108 11.6358L10.1661 11.797L10.0231 11.9592L9.88163 12.1232L9.7422 12.2882L9.60431 12.4547L9.46828 12.6223L9.33403 12.7913L9.20153 12.9614L9.07098 13.1326L8.94214 13.3051L8.81507 13.479L8.69005 13.6537L8.5667 13.8298L8.44531 14.0068L8.3258 14.185L8.20809 14.3643L8.09236 14.5447L7.97853 14.7259L7.86661 14.9083L7.75669 15.0916L7.64857 15.2761L7.5424 15.4615L7.43832 15.6476L7.33611 15.8348L7.23585 16.023L7.13762 16.212L7.04132 16.4018L6.9471 16.5924L6.85484 16.7839L6.76461 16.9762L6.67635 17.1693L6.59018 17.3631L6.50596 17.5578L6.4238 17.7531L6.34375 17.949L6.26569 18.1457L6.18968 18.3431L6.11576 18.5411L6.04388 18.7397L5.97413 18.9388L5.90639 19.1387L5.84076 19.339L5.77722 19.5399L5.71579 19.7412L5.6564 19.9432L5.59917 20.1455L5.54402 20.3483L5.49096 20.5515L5.44002 20.7553L5.3912 20.9592L5.3445 21.1637L5.2999 21.3684L5.25744 21.5736L5.2171 21.7789L5.17887 21.9846L5.14278 22.1905L5.10881 22.3967L5.07698 22.6031L5.04728 22.8097L5.01971 23.0165L4.99427 23.2234L4.97096 23.4305L4.94979 23.6378L4.93076 23.845L4.91385 24.0523L4.89907 24.2598L4.88644 24.4673L4.87593 24.6747L4.86755 24.8822L4.8613 25.0896L4.85719 25.297L4.85519 25.5042L4.85532 25.7115L4.85757 25.9186L4.86195 26.1256L4.86844 26.3324L4.87704 26.539L4.88777 26.7455L4.90059 26.9516L4.91552 27.1576L4.93255 27.3633L4.95169 27.5688L4.9729 27.774L4.99622 27.9788L5.02162 28.1833L5.0491 28.3874L5.07865 28.5912L5.11029 28.7946L5.14397 28.9974L5.17973 29.1999L5.21754 29.402L5.25739 29.6034L5.29929 29.8046L5.34322 30.005L5.38919 30.205L5.43718 30.4045L5.48718 30.6033L5.5392 30.8016L5.5932 30.9991L5.64922 31.1962L5.70722 31.3925L5.7672 31.5882L5.82915 31.7832L5.89305 31.9774L5.95892 32.1709L6.02673 32.3637L6.09648 32.5557L6.16814 32.7469L6.24177 32.9373L6.31726 33.1268L6.39465 33.3156L6.47396 33.5034L6.55513 33.6904L6.63819 33.8765L6.7231 34.0617L6.80986 34.2459L6.89845 34.4292L6.98888 34.6115L7.08112 34.7929L7.17518 34.9732L7.27102 35.1525L7.36865 35.3308L7.46805 35.508L7.56921 35.6841L7.67212 35.8592L7.77678 36.0331L7.88311 36.2059L7.99122 36.3776L8.10098 36.5481L8.21246 36.7175L8.32561 36.8857L8.44039 37.0526L8.55682 37.2184L8.67493 37.383L8.79461 37.5463L8.91594 37.7083L9.0388 37.869L9.16331 38.0284L9.28931 38.1865L9.4169 38.3433L9.54606 38.4989L9.67667 38.653L9.80883 38.8057L9.94245 38.9571L10.0776 39.1071L10.2142 39.2556L10.3522 39.4028L10.4916 39.5484L10.6325 39.6928L10.7748 39.8356L10.9184 39.9769L11.0634 40.1167L11.2098 40.255L11.3575 40.392L11.5065 40.5273L11.6569 40.6611L11.8084 40.7932L11.9613 40.9239L12.1155 41.053L12.2708 41.1805L12.4275 41.3065L12.5852 41.4307L12.7442 41.5534L12.9043 41.6746L13.0656 41.794L13.228 41.9117L13.3916 42.0279L13.5561 42.1423L13.7219 42.2551L13.8886 42.3662L14.0566 42.4756L14.2253 42.5833L14.3952 42.6892L14.5661 42.7936L14.7378 42.8961L14.9106 42.9969L15.0843 43.0958L15.2589 43.1931L15.4344 43.2886L15.6109 43.3823L15.788 43.4742L15.9661 43.5645L16.1451 43.6528L16.3248 43.7394L16.5053 43.8241L16.6866 43.9071L16.8685 43.9881L17.0513 44.0674L17.2347 44.1448L17.4189 44.2205L17.6037 44.2942L17.7892 44.3661L17.9753 44.4362L18.1619 44.5044L18.3492 44.5706L18.5371 44.635L18.7255 44.6976L18.9145 44.7583L19.1038 44.8171L19.2939 44.874L19.4843 44.929L19.6752 44.9821L19.8666 45.0333L20.0583 45.0826L20.2504 45.13L20.4428 45.1755L20.6358 45.2191L20.8289 45.2607L21.0223 45.3005L21.2162 45.3383L21.4103 45.3742L21.6046 45.4082L21.7992 45.4403L21.9939 45.4704L22.1889 45.4986L22.3842 45.5248L22.5794 45.5492L22.7748 45.5716L22.9704 45.5921L23.1661 45.6107L23.3619 45.6273L23.5577 45.6421L23.7535 45.6548L23.9494 45.6657L24.1452 45.6746L24.341 45.6816L24.5368 45.6867L24.7326 45.6898L24.9281 45.6911L25.1237 45.6904L25.3192 45.6878L25.5144 45.6833L25.7095 45.6768L25.9045 45.6686L26.0993 45.6583L26.2937 45.6462L26.488 45.6322L26.6821 45.6163L26.8759 45.5984L27.0693 45.5787L27.2625 45.5571L27.4552 45.5337L27.6477 45.5083L27.8397 45.4811L28.0314 45.452L28.2227 45.4211L28.4136 45.3882L28.6041 45.3536L28.7939 45.3171L28.9834 45.2788L29.1723 45.2386L29.3608 45.1966L29.5486 45.1528L29.736 45.1071L29.9227 45.0597L30.1088 45.0104L30.2943 44.9594L30.4793 44.9065L30.6635 44.8519L30.8471 44.7955L31.03 44.7374L31.2122 44.6774L31.3937 44.6158L31.5743 44.5524L31.7544 44.4872L31.9336 44.4204L32.112 44.3517L32.2896 44.2815L32.4663 44.2096L32.6422 44.1358L32.8173 44.0605L32.9916 43.9834L33.1647 43.9048L33.3372 43.8245L33.5087 43.7424L33.6792 43.6589L33.8488 43.5736L34.0173 43.4867L34.185 43.3983L34.3517 43.3082L34.5171 43.2166L34.6817 43.1234L34.8451 43.0288L35.0077 42.9324L35.1688 42.8347L35.3293 42.7353L35.4883 42.6345L35.6462 42.5321L35.8031 42.4282L35.9589 42.3228L36.1133 42.2162L36.2666 42.1079L36.4187 41.9982L36.5696 41.8872L36.7194 41.7746L36.8677 41.6608L37.0151 41.5454L37.1609 41.4288L37.3054 41.3108L37.4489 41.1914L37.591 41.0706L37.7316 40.9487L37.871 40.8253L38.0089 40.7007L38.1456 40.5748L38.281 40.4476L38.4147 40.3194L38.5473 40.1896L38.6785 40.0587L38.8081 39.9266L38.9364 39.7933L39.0631 39.659L39.1884 39.5236L39.3125 39.3865L39.4347 39.2488L39.5558 39.1097L39.6751 38.9697L39.793 38.8284L39.9094 38.6863L40.0242 38.543L40.1376 38.3986L40.2493 38.2533L40.3596 38.1069L40.4681 37.9596L40.5753 37.8112L40.681 37.6617L40.7846 37.5117L40.887 37.3605L40.9876 37.2086L41.0867 37.0555L41.1843 36.9015L41.28 36.747L41.3741 36.5915L41.4667 36.4348L41.5573 36.2779L41.6466 36.1198L41.7342 35.9609L41.8198 35.8016L41.904 35.6412L41.9866 35.48L42.0671 35.3188L42.1462 35.1562L42.2236 34.993L42.2992 34.8293L42.373 34.665L42.4452 34.5L42.5155 34.3346L42.5843 34.1682L42.6512 34.0014L42.7163 33.8345L42.7797 33.6663L42.8413 33.4981L42.9013 33.3291L42.9595 33.1598L43.0159 32.9899L43.0703 32.82L43.1233 32.6489L43.1742 32.478L43.2234 32.3065L43.2709 32.1348L43.3166 31.9624L43.3603 31.79L43.4025 31.6171L43.4427 31.4438L43.4812 31.2704L43.5179 31.0965L43.5527 30.9228L43.5858 30.7482L43.617 30.5741L43.6464 30.3993L43.6741 30.2245L43.6998 30.0496L43.7239 29.8743L43.7461 29.6993L43.7665 29.5236L43.7851 29.3484L43.8019 29.1728L43.8168 28.9974L43.83 28.8215L43.8413 28.6463L43.8509 28.4705L43.8586 28.2946L43.8645 28.1191L43.8687 27.944L43.871 27.7682L43.8715 27.5928L43.8703 27.4175L43.8672 27.2424L43.8623 27.0673L43.8556 26.8929L43.8472 26.7178L43.837 26.5434L43.825 26.3691L43.8112 26.1954L43.7956 26.0213L43.7784 25.848L43.7593 25.6746L43.7384 25.5017L43.7158 25.329L43.6914 25.1568L43.6652 24.9846L43.6373 24.8131L43.6078 24.6422L43.5764 24.4712L43.5433 24.3007L43.5085 24.1309L43.4719 23.9611L43.4338 23.7924L43.3937 23.6236L43.3522 23.4558L43.3087 23.2879L43.2637 23.1212L43.217 22.9547L43.1686 22.7886L43.1186 22.6234L43.0669 22.4589L43.0134 22.2945L42.9585 22.1313L42.9017 21.9682L42.8435 21.8062L42.7835 21.6445L42.722 21.4839L42.6587 21.3236L42.5939 21.1641L42.5277 21.0057L42.4598 20.848L42.3901 20.6905L42.3193 20.5345L42.2464 20.3786L42.1723 20.2241L42.0967 20.0703L42.0193 19.917L41.9406 19.7649L41.8603 19.6136L41.7784 19.4629L41.6954 19.3137L41.6105 19.1648L41.5244 19.0172L41.4366 18.8703L41.3477 18.7248L41.2569 18.5797L41.1651 18.4359L41.0716 18.2929L40.9768 18.1511L40.8808 18.0105L40.783 17.8705L40.6841 17.7317L40.5838 17.594L40.4821 17.4575L40.3792 17.3218L40.2748 17.1875L40.1693 17.0541L40.0623 16.922L39.9542 16.7909L39.8446 16.6609L39.7338 16.5322L39.6219 16.4046L39.5088 16.2782L39.3944 16.153L39.2785 16.0288L39.162 15.9063L39.0436 15.7845L38.9246 15.6643L38.8043 15.5451L38.6829 15.4274L38.56 15.3106L38.4366 15.1956L38.3116 15.0815L38.1855 14.9688L38.0588 14.8575L37.9309 14.7475L37.8014 14.6386L37.6713 14.5312L37.5403 14.4251L37.4081 14.3205L37.275 14.2171L37.1411 14.1154L37.0058 14.0145L36.87 13.9155L36.733 13.8178L36.5951 13.7213L36.4566 13.6264L36.3166 13.5326L36.1766 13.4408L36.035 13.35L35.8929 13.2608L35.7497 13.173L35.606 13.0866L35.4614 13.0018L35.3163 12.9187L35.1698 12.8365L35.0234 12.7563L34.8756 12.6773L34.7273 12.5999L34.5785 12.5241L34.4287 12.4497L34.2784 12.3767L34.1275 12.3055L33.9758 12.2356L33.8237 12.1674L33.6709 12.1006L33.5126 12.0333L33.3637 11.9718L33.2088 11.9096L33.0542 11.8492L32.8983 11.79L32.7423 11.7328L32.5858 11.6768L32.4288 11.6226L32.2712 11.5698L32.1135 11.5188L31.9551 11.4692L31.7963 11.4213L31.6375 11.375L31.4779 11.3302L31.3178 11.2869L31.1579 11.2454L30.9977 11.2055L30.8364 11.167L30.6758 11.1303L30.5143 11.0951L30.3528 11.0616L30.1908 11.0296L30.0289 10.9993L29.8667 10.9705L29.7045 10.9434L29.5416 10.9179L29.3791 10.894L29.2162 10.8717L29.0531 10.851L28.8901 10.8319L28.727 10.8145L28.5638 10.7987L28.4005 10.7844L28.2371 10.7718L28.0736 10.7608L27.9105 10.7514L27.7473 10.7436L27.5836 10.7374L27.4208 10.7329L27.2576 10.7299L27.0945 10.7285L26.9312 10.7287L26.8985 10.7291L26.95 15.0725L27.0426 15.0721L27.1618 15.0728L27.281 15.0746L27.4003 15.0776L27.5197 15.0818L27.6392 15.0873L27.7586 15.0939L27.8781 15.1016L27.9977 15.1106L28.1172 15.1207L28.2368 15.1321L28.3562 15.1446L28.4758 15.1583L28.5952 15.1732L28.7145 15.1892L28.8338 15.2066L28.953 15.225L29.0721 15.2447L29.1912 15.2656L29.3101 15.2876L29.4288 15.3109L29.5475 15.3354L29.666 15.3609L29.7843 15.3878L29.9023 15.4158L30.0203 15.445L30.1379 15.4754L30.2554 15.507L30.3727 15.5397L30.4897 15.5737L30.6066 15.6088L30.723 15.645L30.8392 15.6825L30.9551 15.7212L31.0708 15.7611L31.186 15.8021L31.301 15.8442L31.4155 15.8875L31.5298 15.9321L31.6437 15.9778L31.7572 16.0246L31.8703 16.0726L31.983 16.1217L32.0953 16.1721L32.2071 16.2234L32.3185 16.2761L32.4295 16.3298L32.54 16.3847L32.65 16.4407L32.7595 16.4979L32.8685 16.5561L32.977 16.6155L33.085 16.6759L33.1923 16.7375L33.2993 16.8003L33.4056 16.8641L33.5113 16.929L33.6164 16.995L33.721 17.0622L33.825 17.1304L33.9283 17.1996L34.031 17.2699L34.133 17.3414L34.2344 17.4138L34.3351 17.4873L34.4351 17.562L34.5345 17.6375L34.633 17.7142L34.731 17.792L34.8281 17.8706L34.9246 17.9504L35.0203 18.0312L35.1153 18.1129L35.2095 18.1956L35.3029 18.2793L35.3955 18.3641L35.4872 18.4498L35.5783 18.5365L35.6684 18.6241L35.7577 18.7128L35.8462 18.8023L35.9338 18.8929L36.0206 18.9842L36.1064 19.0766L36.1914 19.1699L36.2755 19.2641L36.3587 19.3591L36.441 19.4551L36.5223 19.552L36.6028 19.6497L36.6822 19.7483L36.7608 19.8478L36.8383 19.9481L36.9148 20.0492L36.9904 20.1513L37.065 20.254L37.1386 20.3576L37.2111 20.4621L37.2827 20.5673L37.3531 20.6733L37.4226 20.78L37.491 20.8876L37.5584 20.9959L37.6247 21.1049L37.69 21.2147L37.7541 21.3253L37.8171 21.4364L37.8791 21.5483L37.9398 21.6609L37.9996 21.7742L38.0583 21.8882L38.1156 22.0029L38.172 22.1182L38.2272 22.2341L38.2812 22.3506L38.3341 22.4679L38.3858 22.5856L38.4363 22.704L38.4856 22.823L38.5338 22.9425L38.5808 23.0626L38.6264 23.1832L38.671 23.3045L38.7143 23.4262L38.7564 23.5484L38.7973 23.6712L38.8369 23.7945L38.8753 23.9181L38.9125 24.0423L38.9484 24.167L38.983 24.2921L39.0163 24.4176L39.0485 24.5436L39.0793 24.6699L39.1088 24.7966L39.1371 24.9238L39.1641 25.0513L39.1897 25.1791L39.2141 25.3073L39.2371 25.4359L39.2589 25.5648L39.2794 25.6939L39.2985 25.8234L39.3163 25.9531L39.3328 26.0831L39.348 26.2134L39.3618 26.344L39.3743 26.4747L39.3855 26.6057L39.3953 26.7368L39.4038 26.8682L39.4109 26.9997L39.4167 27.1314L39.4211 27.2633L39.4242 27.3953L39.4259 27.5274L39.4262 27.6597L39.4252 27.792L39.4228 27.9243L39.4191 28.0568L39.4139 28.1895L39.4075 28.322L39.3996 28.4546L39.3904 28.5873L39.3798 28.7199L39.3678 28.8525L39.3545 28.9851L39.3397 29.1176L39.3237 29.2503L39.3062 29.3826L39.2873 29.515L39.2671 29.6473L39.2455 29.7795L39.2226 29.9115L39.1981 30.0434L39.1725 30.1753L39.1453 30.3068L39.1168 30.4383L39.087 30.5696L39.0558 30.7006L39.0231 30.8314L38.9892 30.9621L38.9538 31.0924L38.9171 31.2225L38.8791 31.3523L38.8396 31.4818L38.7988 31.6112L38.7566 31.7401L38.713 31.8687L38.6681 31.997L38.622 32.1249L38.5744 32.2524L38.5254 32.3796L38.4752 32.5064L38.4236 32.6328L38.3706 32.7588L38.3163 32.8842L38.2608 33.0093L38.2038 33.134L38.1455 33.2581L38.086 33.3817L38.0251 33.5049L37.9628 33.6275L37.8993 33.7497L37.8345 33.8712L37.7684 33.9922L37.701 34.1126L37.6323 34.2325L37.5623 34.3517L37.4911 34.4705L37.4186 34.5884L37.3448 34.7059L37.2697 34.8226L37.1935 34.9388L37.1159 35.0541L37.0371 35.1689L36.9571 35.283L36.8759 35.3963L36.7934 35.5089L36.7097 35.6208L36.6248 35.732L36.5387 35.8423L36.4514 35.9518L36.3629 36.0607L36.2733 36.1687L36.1825 36.2759L36.0904 36.3823L35.9972 36.4879L35.9029 36.5925L35.8075 36.6964L35.7109 36.7994L35.6133 36.9015L35.5144 37.0026L35.4145 37.103L35.3134 37.2023L35.2113 37.3008L35.108 37.3983L35.0038 37.4948L34.8985 37.5905L34.792 37.685L34.6846 37.7787L34.5761 37.8714L34.4667 37.963L34.3561 38.0537L34.2446 38.1432L34.132 38.2317L34.0185 38.3192L33.9041 38.4057L33.7886 38.4911L33.6721 38.5754L33.5548 38.6587L33.4366 38.7407L33.3173 38.8217L33.1971 38.9016L33.0761 38.9804L32.9542 39.058L32.8314 39.1345L32.7077 39.2097L32.5833 39.2839L32.4578 39.3568L32.3317 39.4286L32.2046 39.4991L32.0768 39.5686L31.9481 39.6367L31.8187 39.7037L31.6885 39.7693L31.5576 39.8338L31.4259 39.8971L31.2934 39.959L31.1602 40.0197L31.0263 40.0791L30.8918 40.1373L30.7564 40.1941L30.6205 40.2497L30.4839 40.304L30.3467 40.357L30.2088 40.4087L30.0703 40.459L29.9312 40.508L29.7914 40.5556L29.6512 40.602L29.5103 40.6469L29.3689 40.6905L29.227 40.7328L29.0845 40.7736L28.9416 40.8131L28.798 40.8512L28.6541 40.8879L28.5096 40.9232L28.3647 40.9572L28.2193 40.9897L28.0736 41.0208L27.9273 41.0505L27.7808 41.0788L27.6338 41.1057L27.4864 41.1312L27.3387 41.1551L27.1908 41.1776L27.0423 41.1988L26.8936 41.2184L26.7446 41.2367L26.5954 41.2534L26.4459 41.2688L26.2961 41.2826L26.1461 41.295L25.9959 41.3059L25.8454 41.3154L25.6947 41.3233L25.5439 41.3298L25.3929 41.3348L25.2418 41.3383L25.0905 41.3404L24.9391 41.3409L24.7876 41.34L24.6361 41.3375L24.4844 41.3337L24.3327 41.3282L24.181 41.3213L24.0292 41.3129L23.8775 41.303L23.7256 41.2916L23.5739 41.2787L23.4222 41.2642L23.2705 41.2483L23.1189 41.2309L22.9675 41.2121L22.816 41.1916L22.6647 41.1697L22.5136 41.1463L22.3626 41.1214L22.2117 41.0949L22.061 41.0671L21.9105 41.0376L21.7603 41.0066L21.6102 40.9742L21.4604 40.9404L21.3109 40.9049L21.1616 40.868L21.0126 40.8296L20.8638 40.7897L20.7154 40.7483L20.5675 40.7055L20.4197 40.6612L20.2723 40.6154L20.1254 40.568L19.9789 40.5192L19.8327 40.469L19.687 40.4173L19.5418 40.3641L19.3969 40.3095L19.2526 40.2533L19.1087 40.1958L18.9653 40.1367L18.8225 40.0763L18.6802 40.0145L18.5385 39.9511L18.3972 39.8863L18.2567 39.8201L18.1167 39.7525L17.9772 39.6834L17.8384 39.613L17.7003 39.5412L17.5628 39.4679L17.426 39.3932L17.2898 39.3172L17.1544 39.2397L17.0196 39.1609L16.8856 39.0807L16.7523 38.9991L16.6198 38.9163L16.4881 38.832L16.3572 38.7464L16.2271 38.6594L16.0978 38.5711L15.9693 38.4815L15.8417 38.3906L15.7148 38.2983L15.5889 38.2048L15.4638 38.1099L15.3397 38.0138L15.2166 37.9164L15.0943 37.8176L14.9729 37.7178L14.8525 37.6165L14.733 37.5141L14.6146 37.4104L14.4971 37.3055L14.3806 37.1993L14.2653 37.0921L14.1509 36.9836L14.0375 36.8738L13.9252 36.7629L13.8141 36.6508L13.7039 36.5375L13.5948 36.4232L13.4869 36.3076L13.3802 36.1911L13.2745 36.0732L13.17 35.9543L13.0667 35.8344L12.9644 35.7133L12.8635 35.5912L12.7636 35.4679L12.6651 35.3437L12.5677 35.2183L12.4716 35.092L12.3767 34.9646L12.2829 34.8363L12.1905 34.7069L12.0995 34.5765L12.0096 34.4451L11.9211 34.3129L11.8339 34.1797L11.748 34.0455L11.6634 33.9104L11.5802 33.7743L11.4983 33.6374L11.4178 33.4997L11.3386 33.3609L11.2608 33.2215L11.1844 33.0811L11.1095 32.9399L11.0359 32.7979L10.9637 32.655L10.893 32.5114L10.8237 32.367L10.7558 32.2219L10.6894 32.0758L10.6244 31.9292L10.5609 31.7818L10.4989 31.6337L10.4384 31.4849L10.3794 31.3355L10.3219 31.1853L10.2659 31.0345L10.2114 30.8831L10.1584 30.7309L10.107 30.5783L10.0571 30.425L10.0087 30.2712L9.96194 30.1168L9.9167 29.9619L9.87303 29.8064L9.83093 29.6504L9.79042 29.4938L9.75148 29.3368L9.71413 29.1793L9.67839 29.0214L9.64424 28.863L9.61171 28.7042L9.58079 28.545L9.55148 28.3854L9.5238 28.2254L9.49776 28.065L9.47334 27.9044L9.45055 27.7433L9.42942 27.582L9.40993 27.4203L9.39209 27.2583L9.37589 27.0962L9.36136 26.9337L9.3485 26.7709L9.33729 26.6081L9.32774 26.4449L9.31988 26.2816L9.31369 26.1182L9.30918 25.9546L9.30634 25.7908L9.30518 25.6269L9.30571 25.4629L9.30792 25.2988L9.31182 25.1347L9.3174 24.9705L9.32469 24.8062L9.33367 24.642L9.34432 24.4776L9.35669 24.3134L9.37073 24.1491L9.38648 23.985L9.40394 23.8208L9.42307 23.6568L9.44392 23.4929L9.46645 23.329L9.49068 23.1653L9.51661 23.0017L9.54422 22.8383L9.57354 22.6751L9.60455 22.5121L9.63726 22.3492L9.67164 22.1867L9.70773 22.0243L9.74551 21.8623L9.78496 21.7005L9.8261 21.539L9.86893 21.3779L9.91343 21.217L9.95961 21.0565L10.0075 20.8964L10.057 20.7366L10.1082 20.5772L10.1611 20.4183L10.2156 20.2598L10.2718 20.1017L10.3296 19.9441L10.3891 19.787L10.4502 19.6304L10.513 19.4742L10.5774 19.3187L10.6435 19.1637L10.7112 19.0091L10.7805 18.8553L10.8514 18.702L10.924 18.5492L10.9981 18.3972L11.0739 18.2458L11.1512 18.095L11.2302 17.945L11.3107 17.7956L11.3928 17.647L11.4765 17.499L11.5617 17.3517L11.6485 17.2054L11.7369 17.0597L11.8268 16.9148L11.9183 16.7707L12.0112 16.6274L12.1058 16.485L12.2017 16.3434L12.2993 16.2028L12.3983 16.0629L12.4987 15.9239L12.6008 15.7859L12.7042 15.6488L12.8092 15.5126L12.9155 15.3774L13.0234 15.2432L13.1326 15.11L13.2433 14.9778L13.3554 14.8465L13.4689 14.7163L13.5838 14.5872L13.7002 14.4591L13.8178 14.3321L13.9369 14.2062L14.0573 14.0813L14.1791 13.9576L14.3021 13.835L14.4266 13.7136L14.5523 13.5933L14.6794 13.4741L14.8077 13.3563L14.9373 13.2395L15.0683 13.124L15.2003 13.0097L15.3337 12.8966L15.4684 12.7848L15.6042 12.6742L15.7412 12.5649L15.8795 12.457L16.0189 12.3503L16.1595 12.2449L16.3013 12.1408L16.4442 12.0381L16.5881 11.9367L16.7334 11.8367L16.8796 11.7381L17.0269 11.6409L17.1754 11.545L17.3248 11.4506L17.4754 11.3576L17.627 11.266L17.7796 11.1758L17.9331 11.0871L18.0878 10.9999L18.2434 10.9141L18.3998 10.8298L18.5573 10.747L18.7158 10.6657L18.8751 10.5859L19.0353 10.5077L19.1964 10.4309L19.3585 10.3557L19.5213 10.2821L19.6851 10.21L19.8496 10.1395L20.015 10.0706L20.1811 10.0033L20.3479 9.93753L20.5156 9.87339L20.6841 9.81087L20.8533 9.74997L21.0231 9.6907L21.1937 9.63306L21.365 9.57708L21.5368 9.52274L21.7094 9.47006L21.8826 9.41905L22.0564 9.36972L22.2308 9.32206L22.4058 9.2761L22.5813 9.23182L22.7575 9.18926L22.9341 9.1484L23.1112 9.10924L23.2888 9.07181L23.4669 9.03611L23.6455 9.00214L23.8245 8.9699L24.0039 8.9394L24.1838 8.91065L24.3641 8.88365L24.5446 8.85842L24.7255 8.83493L24.793 8.82684ZM24.8694 15.269L24.8173 10.8779L24.6691 10.8986L24.5096 10.9225L24.3501 10.948L24.1916 10.9749L24.0328 11.0035L23.8748 11.0336L23.7172 11.0652L23.5602 11.0982L23.4035 11.1329L23.2471 11.1691L23.0912 11.2067L22.936 11.2459L22.7809 11.2866L22.6319 11.3273L22.4731 11.3724L22.3198 11.4175L22.1672 11.4641L22.0154 11.5121L21.8639 11.5616L21.713 11.6126L21.5628 11.665L21.4134 11.7188L21.2645 11.7741L21.1163 11.8307L20.9687 11.8889L20.8222 11.9483L20.6758 12.0093L20.5304 12.0716L20.3858 12.1353L20.2421 12.2003L20.0988 12.2667L19.9563 12.3346L19.8151 12.4036L19.6741 12.4741L19.5345 12.5458L19.3952 12.6191L19.2572 12.6933L19.1195 12.7693L18.9831 12.8462L18.8477 12.9245L18.7129 13.0041L18.5792 13.0849L18.4461 13.1672L18.3144 13.2504L18.1833 13.335L18.0534 13.4208L17.9244 13.5078L17.7963 13.5961L17.6691 13.6856L17.5433 13.7759L17.4181 13.8679L17.2941 13.9608L17.1711 14.0549L17.0493 14.15L16.9283 14.2465L16.8086 14.3439L16.69 14.4424L16.5722 14.5423L16.456 14.6429L16.3405 14.7448L16.2262 14.8478L16.1131 14.9516L16.0013 15.0565L15.8903 15.1626L15.7809 15.2695L15.6725 15.3774L15.5651 15.4865L15.4591 15.5964L15.3542 15.7074L15.2505 15.8192L15.1481 15.932L15.0469 16.0457L14.9468 16.1605L14.8484 16.2758L14.7509 16.3923L14.6546 16.5097L14.5597 16.6278L14.4662 16.7466L14.3737 16.8666L14.2827 16.9872L14.1929 17.1087L14.1045 17.2309L14.0173 17.354L13.9317 17.4776L13.8472 17.6022L13.7641 17.7275L13.6822 17.8536L13.6019 17.9801L13.5229 18.1075L13.4452 18.2358L13.3688 18.3645L13.2939 18.4939L13.2203 18.624L13.1483 18.7545L13.0775 18.8858L13.0079 19.0179L12.9401 19.1501L12.8735 19.2833L12.8084 19.417L12.7446 19.5509L12.6823 19.6857L12.6214 19.8208L12.562 19.9565L12.5039 20.0926L12.4475 20.2292L12.3923 20.3663L12.3386 20.5039L12.2863 20.6418L12.2356 20.7801L12.1862 20.919L12.1385 21.058L12.092 21.1975L12.0471 21.3374L12.0036 21.4776L11.9617 21.6181L11.9211 21.7589L11.8821 21.8999L11.8445 22.0414L11.8084 22.183L11.7738 22.3249L11.7407 22.4671L11.7091 22.6093L11.6789 22.752L11.6502 22.8947L11.6231 23.0375L11.5973 23.1807L11.5732 23.3239L11.5504 23.4673L11.5292 23.6106L11.5094 23.7542L11.4912 23.8979L11.4744 24.0416L11.4591 24.1854L11.4453 24.3292L11.433 24.4731L11.4222 24.6168L11.4129 24.7608L11.405 24.9047L11.3986 25.0484L11.3937 25.1922L11.3903 25.3358L11.3884 25.4795L11.3879 25.6231L11.3889 25.7665L11.3914 25.9098L11.3954 26.053L11.4008 26.1959L11.4077 26.3389L11.416 26.4816L11.4258 26.624L11.4371 26.7664L11.4498 26.9084L11.4639 27.0503L11.4795 27.1918L11.4966 27.3332L11.5151 27.4743L11.535 27.615L11.5563 27.7556L11.5791 27.8956L11.6033 28.0355L11.6289 28.175L11.6559 28.314L11.6843 28.4529L11.7142 28.5912L11.7454 28.7292L11.778 28.8666L11.812 29.0038L11.8474 29.1405L11.8842 29.2767L11.9222 29.4124L11.9618 29.5478L12.0026 29.6825L12.0448 29.8168L12.0884 29.9507L12.1333 30.0839L12.1795 30.2165L12.227 30.3487L12.2759 30.4803L12.3261 30.6113L12.3776 30.7416L12.4303 30.8714L12.4844 31.0006L12.5397 31.1291L12.5964 31.257L12.6543 31.3842L12.7135 31.5107L12.7739 31.6366L12.8355 31.7619L12.8985 31.8863L12.9626 32.0101L13.0279 32.1332L13.0945 32.2555L13.1622 32.3771L13.2312 32.4979L13.3013 32.6179L13.3727 32.7371L13.4452 32.8556L13.5188 32.9732L13.5936 33.09L13.6696 33.2062L13.7466 33.3212L13.8248 33.4356L13.9041 33.549L13.9845 33.6616L14.066 33.7733L14.1486 33.8841L14.2322 33.994L14.317 34.1031L14.4027 34.2112L14.4895 34.3183L14.5773 34.4246L14.6662 34.5299L14.7561 34.6341L14.847 34.7376L14.9388 34.8399L15.0317 34.9414L15.1254 35.0417L15.2202 35.1412L15.3159 35.2396L15.4126 35.337L15.5101 35.4333L15.6086 35.5287L15.708 35.623L15.8081 35.7162L15.9094 35.8084L16.0113 35.8995L16.1142 35.9895L16.2179 36.0784L16.3225 36.1663L16.4278 36.2531L16.5339 36.3387L16.6409 36.4232L16.7486 36.5066L16.8571 36.589L16.9664 36.6701L17.0763 36.7501L17.187 36.829L17.2985 36.9067L17.4106 36.9833L17.5236 37.0588L17.6371 37.133L17.7513 37.2061L17.8662 37.278L17.9817 37.3487L18.0978 37.4182L18.2146 37.4865L18.3319 37.5536L18.45 37.6195L18.5684 37.6841L18.6876 37.7476L18.8072 37.8099L18.9273 37.8708L19.0481 37.9307L19.1695 37.9892L19.2912 38.0466L19.4134 38.1026L19.5362 38.1575L19.6593 38.2111L19.7829 38.2633L19.907 38.3145L20.0316 38.3642L20.1563 38.4128L20.2817 38.46L20.4073 38.5061L20.5334 38.5508L20.6597 38.5942L20.7866 38.6365L20.9136 38.6773L21.041 38.717L21.1687 38.7553L21.2967 38.7923L21.4248 38.8281L21.5534 38.8625L21.6821 38.8958L21.8111 38.9276L21.9403 38.9582L22.0697 38.9875L22.1994 39.0156L22.3292 39.0423L22.4591 39.0676L22.5893 39.0917L22.7194 39.1146L22.8498 39.1362L22.9803 39.1563L23.1109 39.1753L23.2416 39.1929L23.3722 39.2092L23.503 39.2242L23.6338 39.238L23.7647 39.2504L23.8956 39.2615L24.0266 39.2713L24.1575 39.2799L24.2883 39.2871L24.4191 39.2931L24.55 39.2978L24.6806 39.3012L24.8112 39.3032L24.9418 39.304L25.0722 39.3036L25.2026 39.3017L25.3328 39.2988L25.4628 39.2945L25.5928 39.2889L25.7225 39.282L25.852 39.2739L25.9813 39.2645L26.1105 39.2538L26.2394 39.2419L26.3681 39.2287L26.4967 39.2142L26.6248 39.1986L26.7528 39.1816L26.8804 39.1636L27.0078 39.1441L27.1348 39.1234L27.2614 39.1016L27.3879 39.0784L27.5139 39.0541L27.6396 39.0287L27.7651 39.0019L27.8898 38.9739L28.0144 38.9448L28.1385 38.9143L28.2622 38.8829L28.3855 38.8501L28.5084 38.8162L28.6308 38.7811L28.7527 38.7448L28.8741 38.7074L28.995 38.6688L29.1155 38.629L29.2354 38.5881L29.3548 38.5461L29.4737 38.5029L29.592 38.4586L29.7097 38.4131L29.8269 38.3665L29.9436 38.3188L30.0596 38.27L30.175 38.2201L30.2898 38.1692L30.4039 38.1172L30.5176 38.064L30.6305 38.0098L30.7426 37.9547L30.8544 37.8982L30.9652 37.8409L31.0755 37.7824L31.1848 37.7231L31.2937 37.6626L31.4019 37.6012L31.5092 37.5387L31.6159 37.4751L31.7218 37.4107L31.8268 37.3453L31.9313 37.2788L32.0347 37.2115L32.1376 37.1431L32.2397 37.0737L32.3409 37.0034L32.4411 36.9324L32.5409 36.8601L32.6395 36.7873L32.7375 36.7133L32.8346 36.6384L32.9305 36.5629L33.0261 36.4862L33.1206 36.4087L33.2139 36.3305L33.3069 36.2511L33.3986 36.1712L33.4894 36.0905L33.5796 36.0086L33.6685 35.9263L33.7567 35.843L33.8439 35.7589L33.9301 35.6741L34.0154 35.5884L34.0998 35.5021L34.1833 35.4149L34.2655 35.3271L34.347 35.2384L34.4276 35.1491L34.5069 35.0592L34.5855 34.9683L34.6629 34.877L34.7393 34.7849L34.8148 34.692L34.8892 34.5988L34.9626 34.5046L35.035 34.4099L35.1063 34.3145L35.1766 34.2186L35.2456 34.1222L35.3139 34.0248L35.381 33.9272L35.447 33.8289L35.5121 33.7299L35.5758 33.6307L35.6387 33.5307L35.7004 33.4301L35.7611 33.3292L35.8205 33.2278L35.8792 33.1256L35.9363 33.0234L35.9927 32.9203L36.0478 32.817L36.1017 32.7132L36.1547 32.6087L36.2063 32.5044L36.2571 32.3989L36.3064 32.2938L36.3551 32.1875L36.4021 32.0815L36.4484 31.9746L36.4934 31.8678L36.5371 31.7605L36.5798 31.6528L36.6214 31.5447L36.6617 31.4366L36.7011 31.3279L36.7391 31.219L36.776 31.1099L36.8118 31.0005L36.8464 30.8907L36.88 30.7808L36.9122 30.6708L36.9434 30.5604L36.9733 30.4499L37.0021 30.3391L37.0297 30.2282L37.0562 30.1173L37.0816 30.0058L37.1056 29.8945L37.1287 29.783L37.1504 29.6715L37.1711 29.5598L37.1905 29.4476L37.2088 29.3359L37.226 29.2239L37.2419 29.1117L37.2567 28.9998L37.2703 28.8876L37.2828 28.7751L37.2941 28.6634L37.3043 28.5508L37.3133 28.4387L37.321 28.3267L37.3277 28.2145L37.3331 28.1024L37.3375 27.9905L37.3406 27.8782L37.3426 27.7666L37.3435 27.6546L37.3431 27.5429L37.3418 27.4312L37.3392 27.3199L37.3354 27.2084L37.3305 27.0972L37.3245 26.9864L37.3173 26.8753L37.3091 26.7645L37.2997 26.6542L37.2892 26.5437L37.2775 26.4338L37.2646 26.3237L37.2508 26.2141L37.2358 26.1047L37.2196 25.9954L37.2024 25.8865L37.1841 25.778L37.1646 25.6697L37.1441 25.5617L37.1223 25.4537L37.0996 25.3464L37.0759 25.2395L37.051 25.1326L37.025 25.0261L36.998 24.9204L36.9698 24.8144L36.9408 24.7092L36.9105 24.6042L36.8793 24.4999L36.847 24.3957L36.8136 24.292L36.7793 24.1889L36.7439 24.0862L36.7073 23.9836L36.6701 23.8818L36.6315 23.7804L36.5921 23.6796L36.5517 23.579L36.5102 23.4789L36.4678 23.3797L36.4243 23.2806L36.38 23.1823L36.3346 23.0846L36.2883 22.9871L36.2409 22.8901L36.1928 22.7941L36.1435 22.6983L36.0935 22.6034L36.0425 22.5091L35.9904 22.4149L35.9377 22.3218L35.8838 22.2291L35.8292 22.1372L35.7735 22.0456L35.7172 21.955L35.6597 21.8647L35.6017 21.7754L35.5426 21.6866L35.4827 21.5986L35.4218 21.5109L35.3602 21.4242L35.2979 21.3383L35.2345 21.2528L35.1705 21.1682L35.1055 21.0842L35.0401 21.0012L34.9735 20.9186L34.9062 20.8368L34.8381 20.7558L34.7694 20.6755L34.7 20.5962L34.6295 20.5173L34.5586 20.4395L34.4868 20.3622L34.4145 20.2861L34.3411 20.2103L34.2673 20.1356L34.1926 20.0614L34.1173 19.9883L34.0416 19.9161L33.965 19.8445L33.8876 19.7737L33.8096 19.7039L33.7311 19.6349L33.6517 19.5665L33.5722 19.4995L33.4917 19.4328L33.4106 19.3672L33.3291 19.3025L33.2468 19.2384L33.1641 19.1755L33.081 19.1136L32.9969 19.0522L32.9122 18.9916L32.8276 18.9324L32.7418 18.8737L32.6561 18.8163L32.5696 18.7595L32.4826 18.7036L32.395 18.6486L32.3072 18.5947L32.2186 18.5415L32.1298 18.4895L32.0403 18.4381L31.9509 18.388L31.8606 18.3387L31.77 18.2901L31.6789 18.2426L31.5877 18.1963L31.4959 18.1506L31.4036 18.1059L31.3112 18.0623L31.2186 18.0197L31.125 17.9778L31.0318 17.9371L30.9379 17.8973L30.8436 17.8583L30.7492 17.8205L30.6546 17.7837L30.5596 17.7478L30.4641 17.7126L30.3687 17.6788L30.2728 17.6457L30.1767 17.6137L30.0806 17.5826L29.9842 17.5526L29.8877 17.5236L29.7904 17.4954L29.6935 17.4683L29.5963 17.4422L29.4989 17.4171L29.4014 17.3929L29.3035 17.3697L29.2058 17.3475L29.108 17.3264L29.0098 17.3062L28.9114 17.2868L28.8136 17.2688L28.7151 17.2515L28.6168 17.2353L28.518 17.2199L28.4198 17.2057L28.3209 17.1923L28.2226 17.1801L28.1239 17.1688L28.0253 17.1584L27.9268 17.1491L27.828 17.1407L27.7297 17.1333L27.6309 17.127L27.5325 17.1215L27.4343 17.1171L27.3354 17.1136L27.2373 17.1111L27.1392 17.1096L27.0411 17.109L26.9741 17.1092L27.0248 21.3995L27.0552 21.3996L27.1116 21.4004L27.168 21.4017L27.2246 21.4036L27.2812 21.4062L27.3379 21.4092L27.3946 21.4129L27.4514 21.4172L27.5083 21.4221L27.5652 21.4275L27.6221 21.4336L27.6791 21.4401L27.7361 21.4474L27.793 21.4553L27.8501 21.4637L27.9071 21.4728L27.9642 21.4824L28.0211 21.4926L28.0781 21.5036L28.1351 21.5149L28.192 21.5271L28.2489 21.5397L28.3059 21.553L28.3626 21.5668L28.4194 21.5813L28.4761 21.5964L28.5327 21.6121L28.5893 21.6283L28.6458 21.6453L28.7021 21.6628L28.7584 21.6809L28.8146 21.6997L28.8706 21.719L28.9267 21.7389L28.9825 21.7595L29.0381 21.7806L29.0937 21.8023L29.1492 21.8247L29.2044 21.8476L29.2595 21.8712L29.3145 21.8954L29.3693 21.9201L29.4239 21.9455L29.4784 21.9715L29.5326 21.998L29.5867 22.0251L29.6404 22.053L29.6941 22.0813L29.7475 22.1103L29.8006 22.1398L29.8536 22.1699L29.9063 22.2006L29.9587 22.2318L30.011 22.2638L30.0629 22.2963L30.1146 22.3293L30.166 22.3629L30.2171 22.3971L30.268 22.432L30.3186 22.4673L30.3688 22.5032L30.4188 22.5397L30.4685 22.5767L30.5178 22.6143L30.5668 22.6525L30.6155 22.6913L30.6638 22.7306L30.7118 22.7704L30.7595 22.8108L30.8068 22.8517L30.8537 22.8932L30.9003 22.9353L30.9464 22.9779L30.9922 23.0209L31.0376 23.0646L31.0827 23.1088L31.1272 23.1534L31.1714 23.1987L31.2153 23.2443L31.2586 23.2906L31.3016 23.3374L31.3441 23.3847L31.3862 23.4324L31.4278 23.4807L31.4689 23.5295L31.5097 23.5787L31.55 23.6284L31.5897 23.6787L31.6291 23.7293L31.6679 23.7806L31.7063 23.8322L31.7442 23.8843L31.7814 23.9368L31.8184 23.9899L31.8547 24.0434L31.8905 24.0974L31.9259 24.1517L31.9608 24.2066L31.995 24.2618L32.0287 24.3175L32.0619 24.3737L32.0945 24.4301L32.1267 24.4871L32.1581 24.5445L32.1892 24.6022L32.2196 24.6604L32.2494 24.7189L32.2787 24.7778L32.3073 24.8371L32.3354 24.8968L32.3629 24.9568L32.3898 25.0173L32.4162 25.0781L32.4419 25.1392L32.467 25.2007L32.4914 25.2625L32.5153 25.3247L32.5386 25.3872L32.5612 25.45L32.5831 25.5132L32.6045 25.5766L32.6252 25.6404L32.6452 25.7045L32.6646 25.7688L32.6834 25.8334L32.7014 25.8984L32.7189 25.9636L32.7358 26.029L32.7518 26.0948L32.7672 26.1608L32.782 26.227L32.7961 26.2936L32.8095 26.3603L32.8221 26.4271L32.8342 26.4943L32.8455 26.5617L32.8562 26.6292L32.8661 26.6971L32.8753 26.765L32.8838 26.8332L32.8917 26.9016L32.8988 26.9701L32.9052 27.0388L32.9109 27.1076L32.9159 27.1767L32.9201 27.2458L32.9236 27.3151L32.9263 27.3846L32.9285 27.4541L32.9297 27.5238L32.9304 27.5936L32.9302 27.6633L32.9294 27.7333L32.9278 27.8034L32.9254 27.8736L32.9223 27.9438L32.9185 28.014L32.9139 28.0843L32.9086 28.1547L32.9025 28.2251L32.8956 28.2956L32.8881 28.3661L32.8797 28.4365L32.8706 28.5071L32.8609 28.5776L32.8503 28.6481L32.8389 28.7186L32.8268 28.789L32.8139 28.8595L32.8003 28.9299L32.786 29.0003L32.7708 29.0706L32.7548 29.1408L32.7383 29.2111L32.7208 29.2812L32.7026 29.3513L32.6837 29.4212L32.6639 29.4911L32.6435 29.5607L32.6222 29.6304L32.6003 29.6999L32.5776 29.7692L32.5541 29.8386L32.5298 29.9076L32.5047 29.9765L32.4789 30.0454L32.4525 30.1139L32.4252 30.1824L32.3971 30.2506L32.3684 30.3187L32.3388 30.3865L32.3085 30.4542L32.2775 30.5216L32.2456 30.5888L32.213 30.6558L32.1798 30.7225L32.1458 30.789L32.111 30.8553L32.0754 30.9212L32.0392 30.9868L32.0022 31.0523L31.9645 31.1174L31.926 31.1823L31.8869 31.2467L31.8469 31.3111L31.8063 31.3749L31.765 31.4384L31.7228 31.5017L31.6801 31.5646L31.6366 31.6272L31.5923 31.6893L31.5473 31.7512L31.5018 31.8126L31.4554 31.8737L31.4084 31.9344L31.3606 31.9947L31.3122 32.0546L31.2631 32.114L31.2134 32.1731L31.1629 32.2317L31.1117 32.2899L31.0598 32.3476L31.0073 32.405L30.9542 32.4618L30.9004 32.5182L30.8459 32.5742L30.7908 32.6297L30.735 32.6846L30.6786 32.7391L30.6214 32.7931L30.5637 32.8465L30.5054 32.8995L30.4464 32.952L30.3869 33.0039L30.3267 33.0553L30.2659 33.1061L30.2044 33.1564L30.1423 33.2062L30.0797 33.2553L30.0166 33.3039L29.9528 33.352L29.8884 33.3995L29.8235 33.4463L29.7579 33.4925L29.6919 33.5383L29.6252 33.5833L29.558 33.6279L29.4903 33.6716L29.422 33.7149L29.3531 33.7575L29.2838 33.7995L29.2139 33.8407L29.1436 33.8814L29.0727 33.9214L29.0012 33.9607L28.9294 33.9995L28.857 34.0374L28.7842 34.0748L28.7108 34.1114L28.637 34.1474L28.5627 34.1826L28.4879 34.2172L28.4128 34.2511L28.3371 34.2841L28.2611 34.3166L28.1846 34.3483L28.1077 34.3792L28.0303 34.4095L27.9526 34.439L27.8744 34.4678L27.7959 34.4958L27.717 34.5231L27.6377 34.5496L27.558 34.5754L27.478 34.6003L27.3977 34.6245L27.3169 34.648L27.2359 34.6706L27.1545 34.6925L27.0728 34.7136L26.9908 34.7339L26.9084 34.7533L26.8258 34.7721L26.7428 34.7899L26.6596 34.8071L26.5761 34.8233L26.4923 34.8388L26.4084 34.8534L26.3241 34.8673L26.2396 34.8803L26.1548 34.8924L26.07 34.9038L25.9847 34.9144L25.8994 34.924L25.8138 34.9328L25.728 34.9408L25.6421 34.9479L25.556 34.9542L25.4696 34.9596L25.3833 34.9642L25.2967 34.968L25.21 34.9708L25.123 34.9728L25.0361 34.9739L24.9491 34.9742L24.8619 34.9737L24.7746 34.9722L24.6872 34.9698L24.5998 34.9666L24.5123 34.9625L24.4247 34.9575L24.3371 34.9517L24.2495 34.945L24.1619 34.9374L24.0742 34.9289L23.9866 34.9196L23.8988 34.9092L23.8112 34.8981L23.7235 34.8861L23.6359 34.8732L23.5483 34.8593L23.4608 34.8447L23.3733 34.8291L23.2859 34.8126L23.1985 34.7954L23.1112 34.7771L23.0241 34.758L22.937 34.7379L22.8501 34.717L22.7631 34.6953L22.6764 34.6725L22.59 34.6489L22.5035 34.6245L22.4173 34.5991L22.3312 34.5729L22.2453 34.5457L22.1596 34.5178L22.0741 34.4889L21.9888 34.4591L21.9037 34.4284L21.8188 34.3969L21.7343 34.3645L21.6498 34.3312L21.5658 34.297L21.4819 34.262L21.3984 34.2261L21.3151 34.1892L21.232 34.1516L21.1494 34.1131L21.0669 34.0737L20.9848 34.0334L20.9031 33.9923L20.8218 33.9504L20.7408 33.9075L20.6601 33.8639L20.5797 33.8194L20.4998 33.774L20.4202 33.7278L20.3411 33.6807L20.2623 33.6329L20.1841 33.5841L20.1061 33.5346L20.0286 33.4842L19.9516 33.433L19.875 33.3809L19.7989 33.3281L19.7233 33.2745L19.648 33.22L19.5734 33.1647L19.4992 33.1087L19.4255 33.0518L19.3523 32.9941L19.2797 32.9357L19.2076 32.8765L19.136 32.8165L19.065 32.7557L18.9945 32.6941L18.9246 32.6319L18.8553 32.5688L18.7866 32.5049L18.7184 32.4404L18.6509 32.375L18.5838 32.309L18.5176 32.2422L18.4519 32.1747L18.3868 32.1064L18.3223 32.0375L18.2586 31.9678L18.1955 31.8974L18.133 31.8264L18.0713 31.7546L18.0102 31.6822L17.9497 31.609L17.8901 31.5351L17.8311 31.4607L17.7728 31.3856L17.7152 31.3098L17.6584 31.2333L17.6023 31.1563L17.547 31.0786L17.4923 31.0001L17.4385 30.9212L17.3854 30.8416L17.3331 30.7614L17.2817 30.6806L17.2309 30.5992L17.181 30.5173L17.1318 30.4347L17.0835 30.3516L17.036 30.2679L16.9893 30.1837L16.9434 30.0989L16.8984 30.0136L16.8542 29.9276L16.8108 29.8413L16.7683 29.7545L16.7267 29.667L16.6859 29.5791L16.646 29.4907L16.607 29.4018L16.5688 29.3124L16.5316 29.2226L16.4952 29.1323L16.4597 29.0416L16.4252 28.9504L16.3917 28.8588L16.3589 28.7667L16.3271 28.6743L16.2962 28.5815L16.2663 28.4882L16.2373 28.3946L16.2093 28.3006L16.1821 28.2062L16.156 28.1114L16.1309 28.0163L16.1066 27.9208L16.0834 27.825L16.0611 27.729L16.0397 27.6325L16.0194 27.5358L16.0001 27.4388L15.9817 27.3415L15.9643 27.2439L15.9479 27.1461L15.9326 27.048L15.9181 26.9496L15.9047 26.8511L15.8925 26.7522L15.8811 26.6532L15.8708 26.5539L15.8614 26.4545L15.8531 26.3548L15.8459 26.255L15.8396 26.155L15.8344 26.0549L15.8302 25.9547L15.827 25.8542L15.825 25.7537L15.8239 25.6531L15.8238 25.5523L15.8248 25.4514L15.827 25.3505L15.8301 25.2495L15.8343 25.1483L15.8395 25.0472L15.8458 24.9461L15.853 24.8448L15.8614 24.7436L15.8709 24.6423L15.8813 24.5411L15.8929 24.4398L15.9055 24.3386L15.9192 24.2374L15.9339 24.1363L15.9497 24.0351L15.9667 23.9341L15.9845 23.8331L16.0035 23.7322L16.0236 23.6314L16.0447 23.5307L16.0669 23.4301L16.0901 23.3297L16.1144 23.2295L16.1397 23.1292L16.1662 23.0292L16.1937 22.9295L16.2222 22.8298L16.2518 22.7303L16.2825 22.6311L16.3142 22.532L16.3469 22.4331L16.3808 22.3346L16.4156 22.2362L16.4516 22.1381L16.4885 22.0403L16.5266 21.9428L16.5656 21.8455L16.6058 21.7484L16.6469 21.6518L16.6891 21.5555L16.7323 21.4595L16.7766 21.3638L16.8219 21.2684L16.8681 21.1736L16.9155 21.0789L16.9638 20.9847L17.0133 20.8909L17.0636 20.7975L17.1151 20.7046L17.1675 20.612L17.2209 20.5198L17.2753 20.4282L17.3308 20.337L17.3871 20.2462L17.4446 20.1559L17.503 20.0661L17.5623 19.9767L17.6227 19.888L17.6841 19.7997L17.7463 19.712L17.8096 19.6248L17.8738 19.5381L17.9389 19.452L18.0051 19.3665L18.0721 19.2815L18.1402 19.1972L18.2092 19.1133L18.2789 19.0303L18.3497 18.9476L18.4214 18.8657L18.4941 18.7845L18.5676 18.7038L18.642 18.6239L18.7173 18.5446L18.7936 18.4659L18.8706 18.388L18.9486 18.3107L19.0275 18.2341L19.1071 18.1583L19.1877 18.0832L19.2691 18.0088L19.3512 17.9351L19.4343 17.8622L19.5183 17.7901L19.6029 17.7187L19.6885 17.6481L19.7747 17.5783L19.8619 17.5092L19.9497 17.4411L20.0385 17.3737L20.1279 17.3071L20.2181 17.2413L20.3092 17.1764L20.4009 17.1123L20.4934 17.049L20.5867 16.9866L20.6805 16.9251L20.7752 16.8646L20.8706 16.8048L20.9667 16.7459L21.0635 16.688L21.1609 16.6309L21.2591 16.5748L21.3578 16.5196L21.4572 16.4653L21.5573 16.412L21.658 16.3596L21.7594 16.3081L21.8613 16.2576L21.9639 16.2081L22.0671 16.1596L22.1709 16.112L22.2752 16.0654L22.3801 16.0198L22.4856 15.9751L22.5917 15.9315L22.6981 15.889L22.8053 15.8474L22.9129 15.8068L23.021 15.7673L23.1296 15.7289L23.2388 15.6914L23.3484 15.655L23.4585 15.6197L23.5689 15.5854L23.68 15.5522L23.7913 15.52L23.9031 15.489L24.0154 15.459L24.128 15.43L24.2411 15.4022L24.3545 15.3755L24.4684 15.3499L24.5825 15.3254L24.697 15.302L24.8118 15.2797L24.8694 15.269ZM26.2806 23.5193L24.9709 23.8323L24.8939 17.3442L24.8322 17.3581L24.7393 17.38L24.6464 17.4029L24.5543 17.4265L24.4622 17.4511L24.3708 17.4765L24.2793 17.503L24.1887 17.53L24.0979 17.5582L24.0083 17.587L23.9184 17.6168L23.8291 17.6475L23.7402 17.679L23.6517 17.7113L23.5639 17.7443L23.4763 17.7784L23.3892 17.8132L23.3026 17.8488L23.2161 17.8854L23.1308 17.9224L23.0454 17.9606L22.9609 17.9993L22.8764 18.0391L22.7928 18.0795L22.7094 18.1207L22.6269 18.1626L22.5447 18.2054L22.4631 18.2489L22.3821 18.2931L22.3016 18.3381L22.2216 18.3839L22.1425 18.4303L22.0633 18.4776L21.9851 18.5255L21.9076 18.5741L21.8305 18.6234L21.7539 18.6736L21.6781 18.7243L21.6029 18.7758L21.5283 18.8279L21.4544 18.8806L21.3809 18.9341L21.3081 18.9883L21.2361 19.0431L21.1646 19.0986L21.0939 19.1545L21.0239 19.2112L20.9544 19.2686L20.8855 19.3266L20.8176 19.385L20.7502 19.4442L20.6835 19.5039L20.6175 19.5642L20.5521 19.6253L20.4876 19.6867L20.4237 19.7487L20.3604 19.8114L20.298 19.8745L20.2363 19.9382L20.1754 20.0023L20.115 20.0673L20.0555 20.1324L19.9968 20.1982L19.9387 20.2646L19.8816 20.3312L19.825 20.3986L19.7694 20.4661L19.7143 20.5345L19.6602 20.603L19.6067 20.6722L19.5541 20.7418L19.5022 20.8117L19.4511 20.8821L19.4009 20.9529L19.3513 21.0242L19.3026 21.0958L19.2547 21.168L19.2077 21.2403L19.1614 21.313L19.1159 21.3863L19.0713 21.4597L19.0273 21.5338L18.9844 21.6078L18.9421 21.6824L18.9006 21.7573L18.8602 21.8324L18.8204 21.9079L18.7816 21.9837L18.7434 22.0599L18.7062 22.1361L18.6697 22.2129L18.6342 22.2897L18.5995 22.3668L18.5655 22.4442L18.5325 22.522L18.5003 22.5997L18.4689 22.6779L18.4385 22.7562L18.4087 22.8347L18.38 22.9132L18.352 22.9922L18.3248 23.0713L18.2986 23.1505L18.2731 23.2298L18.2486 23.3095L18.2248 23.3891L18.2021 23.4688L18.1801 23.5488L18.1588 23.6289L18.1386 23.709L18.1192 23.7892L18.1005 23.8696L18.0828 23.95L18.066 24.0306L18.05 24.1111L18.0347 24.1916L18.0204 24.2724L18.007 24.353L17.9944 24.4337L17.9826 24.5146L17.9717 24.5951L17.9617 24.6761L17.9525 24.7566L17.9441 24.8374L17.9366 24.9183L17.9298 24.9989L17.9241 25.0796L17.9191 25.1603L17.9148 25.2407L17.9116 25.3212L17.9091 25.4015L17.9075 25.482L17.9066 25.5622L17.9067 25.6423L17.9075 25.7223L17.9092 25.8023L17.9117 25.8821L17.915 25.9617L17.9191 26.0413L17.9241 26.1206L17.9298 26.1998L17.9364 26.2789L17.9438 26.3578L17.952 26.4366L17.961 26.5149L17.9708 26.5934L17.9813 26.6714L17.9928 26.7495L18.005 26.8271L18.0179 26.9046L18.0317 26.982L18.0462 27.0589L18.0616 27.1357L18.0776 27.2121L18.0945 27.2884L18.1121 27.3643L18.1305 27.4401L18.1496 27.5154L18.1696 27.5907L18.1902 27.6654L18.2116 27.74L18.2337 27.8141L18.2566 27.8881L18.2802 27.9616L18.3045 28.0347L18.3296 28.1078L18.3554 28.1803L18.3819 28.2523L18.4091 28.3242L18.437 28.3957L18.4656 28.4667L18.495 28.5374L18.5248 28.6076L18.5556 28.6776L18.587 28.7472L18.6191 28.8163L18.6518 28.8849L18.6851 28.9531L18.7193 29.0212L18.7538 29.0884L18.7892 29.1554L18.8252 29.222L18.8619 29.288L18.8992 29.3537L18.937 29.4189L18.9755 29.4834L19.0147 29.5478L19.0544 29.6115L19.0947 29.6747L19.1358 29.7375L19.1772 29.7998L19.2194 29.8617L19.262 29.9228L19.3053 29.9837L19.3492 30.0439L19.3935 30.1036L19.4386 30.1629L19.4841 30.2215L19.5301 30.2796L19.5767 30.3372L19.6238 30.3944L19.6713 30.4507L19.7196 30.5067L19.7683 30.5622L19.8173 30.617L19.8672 30.6713L19.9172 30.7248L19.9679 30.7781L20.0191 30.8306L20.0705 30.8825L20.1227 30.9339L20.1752 30.9847L20.2281 31.0349L20.2816 31.0845L20.3354 31.1334L20.3897 31.1818L20.4444 31.2296L20.4995 31.2767L20.555 31.3233L20.6109 31.3692L20.6672 31.4146L20.7241 31.4592L20.781 31.5032L20.8385 31.5466L20.8963 31.5895L20.9545 31.6316L21.013 31.6731L21.0719 31.714L21.1311 31.7542L21.1906 31.7938L21.2504 31.8326L21.3105 31.8709L21.3712 31.9087L21.4319 31.9455L21.4929 31.9818L21.5544 32.0175L21.6159 32.0524L21.6777 32.0867L21.7401 32.1205L21.8025 32.1534L21.8651 32.1857L21.9279 32.2173L21.9912 32.2483L22.0544 32.2786L22.1181 32.3082L22.1819 32.3372L22.2458 32.3654L22.3101 32.393L22.3745 32.4199L22.4389 32.4462L22.5037 32.4717L22.5686 32.4965L22.6338 32.5207L22.6988 32.5442L22.7644 32.5671L22.8297 32.5891L22.8953 32.6106L22.9611 32.6314L23.027 32.6515L23.0929 32.6708L23.1589 32.6896L23.2252 32.7075L23.2914 32.7249L23.3577 32.7415L23.4241 32.7575L23.4904 32.7728L23.5569 32.7873L23.6235 32.8013L23.6901 32.8145L23.7567 32.8271L23.8233 32.8389L23.89 32.8501L23.9567 32.8606L24.0234 32.8705L24.0898 32.8796L24.1566 32.888L24.2231 32.8958L24.2898 32.903L24.3564 32.9093L24.423 32.9151L24.4895 32.9203L24.5559 32.9247L24.6223 32.9284L24.6886 32.9315L24.7547 32.934L24.8211 32.9357L24.887 32.9368L24.9529 32.9373L25.0188 32.9371L25.0845 32.9363L25.1503 32.9347L25.2159 32.9325L25.2811 32.9298L25.3463 32.9263L25.4117 32.9222L25.4764 32.9174L25.5413 32.9121L25.6059 32.9061L25.6704 32.8995L25.7347 32.8921L25.7987 32.8842L25.8628 32.8757L25.9264 32.8665L25.9898 32.8567L26.0534 32.8464L26.1164 32.8354L26.1793 32.8238L26.242 32.8115L26.3045 32.7987L26.3666 32.7853L26.4284 32.7713L26.4902 32.7566L26.5517 32.7414L26.6128 32.7257L26.6737 32.7093L26.7343 32.6924L26.7948 32.6748L26.8548 32.6567L26.9144 32.6381L26.9742 32.6188L27.0333 32.599L27.0921 32.5788L27.1506 32.5579L27.2088 32.5364L27.2669 32.5143L27.3245 32.4918L27.3817 32.4688L27.4386 32.4453L27.4952 32.4211L27.5515 32.3964L27.6072 32.3713L27.6629 32.3456L27.718 32.3195L27.7727 32.2928L27.8272 32.2656L27.8811 32.238L27.9348 32.2098L27.9881 32.1811L28.041 32.152L28.0934 32.1224L28.1455 32.0923L28.1972 32.0617L28.2484 32.0307L28.2992 31.9992L28.3496 31.9673L28.3996 31.935L28.4493 31.9022L28.4984 31.869L28.5471 31.8353L28.5954 31.8012L28.6431 31.7667L28.6905 31.7317L28.7375 31.6964L28.7839 31.6606L28.83 31.6245L28.8756 31.5879L28.9206 31.5511L28.9653 31.5138L29.0094 31.4761L29.053 31.438L29.0963 31.3996L29.1391 31.3607L29.1813 31.3216L29.2229 31.2822L29.2643 31.2423L29.3051 31.2021L29.3454 31.1616L29.3852 31.1208L29.4244 31.0796L29.4631 31.0382L29.5016 30.9963L29.5392 30.9543L29.5766 30.9118L29.6133 30.8691L29.6494 30.8263L29.6853 30.7829L29.7203 30.7395L29.7551 30.6956L29.7893 30.6516L29.8228 30.6073L29.856 30.5626L29.8885 30.518L29.9205 30.4728L29.9521 30.4274L29.983 30.3821L30.0135 30.3362L30.0435 30.2903L30.0727 30.2441L30.1016 30.1978L30.1298 30.1512L30.1576 30.1043L30.1848 30.0574L30.2114 30.0103L30.2376 29.963L30.2631 29.9154L30.2881 29.8679L30.3126 29.82L30.3365 29.7721L30.36 29.724L30.3828 29.6756L30.4051 29.6273L30.4268 29.5788L30.4479 29.5303L30.4686 29.4814L30.4886 29.4326L30.5083 29.3834L30.5271 29.3347L30.5456 29.2851L30.5634 29.2364L30.5808 29.1868L30.5976 29.1373L30.6137 29.088L30.6294 29.0384L30.6445 28.989L30.6592 28.939L30.673 28.8897L30.6867 28.8396L30.6995 28.7903L30.7119 28.7403L30.7237 28.6903L30.735 28.6406L30.7456 28.5911L30.7559 28.5408L30.7655 28.4912L30.7746 28.4411L30.7831 28.3915L30.7912 28.3417L30.7987 28.2918L30.8056 28.242L30.812 28.1922L30.8179 28.1426L30.8233 28.0932L30.828 28.0433L30.8323 27.9939L30.8361 27.9443L30.8393 27.8949L30.842 27.8456L30.8442 27.7964L30.8458 27.7474L30.8469 27.6981L30.8476 27.6489L30.8477 27.6001L30.8472 27.5514L30.8463 27.5028L30.8448 27.4542L30.8429 27.4055L30.8404 27.3576L30.8375 27.3088L30.8341 27.2612L30.8301 27.2133L30.8256 27.1651L30.8206 27.1175L30.8153 27.0704L30.8093 27.0225L30.8029 26.9757L30.796 26.9286L30.7887 26.8821L30.7808 26.8351L30.7725 26.7886L30.7637 26.7424L30.7545 26.6964L30.7447 26.6503L30.7345 26.6047L30.7239 26.5591L30.7128 26.5139L30.7013 26.469L30.6892 26.4238L30.6769 26.3795L30.6639 26.3347L30.6506 26.2907L30.6369 26.2467L30.6227 26.2031L30.608 26.1596L30.5929 26.1162L30.5776 26.0734L30.5617 26.0308L30.5453 25.9881L30.5286 25.9461L30.5114 25.9038L30.4941 25.8625L30.476 25.8208L30.4578 25.7798L30.4391 25.7391L30.42 25.6984L30.4005 25.6582L30.3806 25.6182L30.3604 25.5784L30.3398 25.5391L30.3188 25.5L30.2976 25.4613L30.2759 25.4228L30.2537 25.3846L30.2314 25.3467L30.2087 25.3092L30.1855 25.2718L30.1621 25.2351L30.1384 25.1986L30.1143 25.1623L30.0898 25.1263L30.0652 25.0908L30.0401 25.0555L30.0147 25.0206L29.9891 24.9861L29.963 24.9518L29.9369 24.918L29.9102 24.8843L29.8834 24.8513L29.8562 24.8184L29.8288 24.7859L29.8011 24.7538L29.7733 24.7221L29.745 24.6907L29.7164 24.6597L29.6877 24.6289L29.6587 24.5987L29.6294 24.5688L29.5998 24.5391L29.5702 24.51L29.5402 24.4813L29.5101 24.4529L29.4794 24.4247L29.4489 24.3971L29.418 24.3697L29.387 24.3429L29.3556 24.3163L29.3242 24.2903L29.2925 24.2645L29.2606 24.2391L29.2286 24.2141L29.1963 24.1895L29.1639 24.1654L29.1313 24.1415L29.0985 24.1181L29.0656 24.0951L29.0326 24.0724L28.9994 24.0503L28.966 24.0284L28.9323 24.007L28.8988 23.9859L28.8648 23.9653L28.831 23.945L28.797 23.9253L28.7628 23.9058L28.7284 23.8867L28.6941 23.8681L28.6596 23.8498L28.625 23.832L28.5904 23.8146L28.5554 23.7974L28.5206 23.7808L28.4856 23.7647L28.4506 23.7488L28.4155 23.7333L28.3802 23.7182L28.3452 23.7037L28.3097 23.6895L28.2743 23.6756L28.2389 23.6622L28.2035 23.6491L28.168 23.6365L28.1325 23.6242L28.0969 23.6123L28.0614 23.6009L28.0258 23.5898L27.9901 23.5791L27.9546 23.5689L27.9187 23.559L27.8833 23.5496L27.8476 23.5405L27.8119 23.5317L27.7762 23.5234L27.7406 23.5155L27.705 23.508L27.6694 23.5008L27.6339 23.494L27.5985 23.4876L27.5628 23.4816L27.5276 23.4761L27.4919 23.4708L27.4568 23.4659L27.4213 23.4614L27.3861 23.4573L27.3511 23.4536L27.3159 23.4503L27.2809 23.4472L27.2459 23.4446L27.211 23.4423L27.1761 23.4404L27.1413 23.4389L27.1069 23.4378L27.0722 23.4368L27.0378 23.4364L27.0034 23.4363L26.9692 23.4366L26.935 23.4372L26.901 23.4381L26.867 23.4395L26.8334 23.4411L26.7995 23.4431L26.7661 23.4454L26.7327 23.448L26.6994 23.4511L26.6663 23.4543L26.6331 23.458L26.6004 23.462L26.5677 23.4663L26.5352 23.4709L26.5027 23.4759L26.4705 23.4812L26.4384 23.4867L26.4067 23.4926L26.3747 23.4989L26.3433 23.5054L26.3118 23.5122L26.2806 23.5193Z" fill="#53535C"/>
</svg>
